solid Assem1 - W-1
   facet normal 9.135259e-17 7.071068e-01 -7.071068e-01
      outer loop
         vertex 6.460000e+02 1.977824e+02 -4.949000e+02
         vertex 1.800000e+02 -1.734486e+02 -8.661310e+02
         vertex 1.800000e+02 1.977824e+02 -4.949000e+02
      endloop
   endfacet
   facet normal -1.000000e+00 2.352496e-16 1.060575e-16
      outer loop
         vertex 1.800000e+02 -1.734486e+02 -8.661310e+02
         vertex 1.800000e+02 1.341428e+02 -4.312604e+02
         vertex 1.800000e+02 1.977824e+02 -4.949000e+02
      endloop
   endfacet
   facet normal 2.413405e-16 7.071063e-01 7.071072e-01
      outer loop
         vertex 6.460000e+02 1.178793e+02 -4.149969e+02
         vertex 6.460000e+02 1.977824e+02 -4.949000e+02
         vertex 1.800000e+02 1.977824e+02 -4.949000e+02
      endloop
   endfacet
   facet normal 1.400517e-07 7.071067e-01 7.071068e-01
      outer loop
         vertex 1.800000e+02 1.341428e+02 -4.312604e+02
         vertex 6.460000e+02 1.178793e+02 -4.149969e+02
         vertex 1.800000e+02 1.977824e+02 -4.949000e+02
      endloop
   endfacet
   facet normal 1.000000e+00 -2.352496e-16 -1.060575e-16
      outer loop
         vertex 6.460000e+02 1.178793e+02 -4.149969e+02
         vertex 6.460000e+02 -1.734486e+02 -8.661310e+02
         vertex 6.460000e+02 1.977824e+02 -4.949000e+02
      endloop
   endfacet
   facet normal 9.135259e-17 7.071068e-01 -7.071068e-01
      outer loop
         vertex 6.460000e+02 -1.734486e+02 -8.661310e+02
         vertex 1.800000e+02 -1.734486e+02 -8.661310e+02
         vertex 6.460000e+02 1.977824e+02 -4.949000e+02
      endloop
   endfacet
   facet normal 9.135260e-17 7.071068e-01 -7.071068e-01
      outer loop
         vertex 1.800000e+02 1.341428e+02 -4.312604e+02
         vertex 1.780000e+02 -2.370882e+02 -8.024914e+02
         vertex 1.780000e+02 1.341428e+02 -4.312604e+02
      endloop
   endfacet
   facet normal -1.000000e+00 2.352496e-16 1.060575e-16
      outer loop
         vertex 1.780000e+02 -2.370882e+02 -8.024914e+02
         vertex 1.780000e+02 -2.638928e+02 -7.303010e+02
         vertex 1.780000e+02 1.341428e+02 -4.312604e+02
      endloop
   endfacet
   facet normal -1.000000e+00 2.352496e-16 1.060575e-16
      outer loop
         vertex 1.780000e+02 -2.638928e+02 -7.303010e+02
         vertex 1.780000e+02 1.178793e+02 -4.149969e+02
         vertex 1.780000e+02 1.341428e+02 -4.312604e+02
      endloop
   endfacet
   facet normal 2.413403e-16 7.071047e-01 7.071088e-01
      outer loop
         vertex 6.460000e+02 1.178793e+02 -4.149969e+02
         vertex 1.800000e+02 1.341428e+02 -4.312604e+02
         vertex 1.780000e+02 1.341428e+02 -4.312604e+02
      endloop
   endfacet
   facet normal 2.413403e-16 7.071047e-01 7.071088e-01
      outer loop
         vertex 1.780000e+02 1.178793e+02 -4.149969e+02
         vertex 6.460000e+02 1.178793e+02 -4.149969e+02
         vertex 1.780000e+02 1.341428e+02 -4.312604e+02
      endloop
   endfacet
   facet normal 9.135260e-17 7.071068e-01 -7.071068e-01
      outer loop
         vertex 1.800000e+02 -2.370882e+02 -8.024914e+02
         vertex 1.780000e+02 -2.370882e+02 -8.024914e+02
         vertex 1.800000e+02 1.341428e+02 -4.312604e+02
      endloop
   endfacet
   facet normal -1.000000e+00 2.352496e-16 1.060575e-16
      outer loop
         vertex 1.800000e+02 -1.734486e+02 -8.661310e+02
         vertex 1.800000e+02 -2.208248e+02 -8.187549e+02
         vertex 1.800000e+02 1.341428e+02 -4.312604e+02
      endloop
   endfacet
   facet normal -1.000000e+00 2.352496e-16 1.060575e-16
      outer loop
         vertex 1.800000e+02 -2.208248e+02 -8.187549e+02
         vertex 1.800000e+02 -2.370882e+02 -8.024914e+02
         vertex 1.800000e+02 1.341428e+02 -4.312604e+02
      endloop
   endfacet
   facet normal -1.000000e+00 2.352496e-16 1.060575e-16
      outer loop
         vertex 1.780000e+02 -3.450092e+02 -2.039158e+02
         vertex 1.780000e+02 1.405067e+02 -3.654994e+02
         vertex 1.780000e+02 1.539417e+02 -3.789344e+02
      endloop
   endfacet
   facet normal 9.135296e-17 7.071079e-01 -7.071057e-01
      outer loop
         vertex 6.460000e+02 1.539417e+02 -3.789344e+02
         vertex 6.460000e+02 1.178793e+02 -4.149969e+02
         vertex 1.780000e+02 1.539417e+02 -3.789344e+02
      endloop
   endfacet
   facet normal 2.413404e-16 7.071054e-01 7.071081e-01
      outer loop
         vertex 1.780000e+02 1.405067e+02 -3.654994e+02
         vertex 6.460000e+02 1.539417e+02 -3.789344e+02
         vertex 1.780000e+02 1.539417e+02 -3.789344e+02
      endloop
   endfacet
   facet normal -1.000000e+00 2.352496e-16 1.060575e-16
      outer loop
         vertex 1.780000e+02 1.178793e+02 -4.149969e+02
         vertex 1.780000e+02 -3.450092e+02 -2.039158e+02
         vertex 1.780000e+02 1.539417e+02 -3.789344e+02
      endloop
   endfacet
   facet normal 9.135296e-17 7.071079e-01 -7.071057e-01
      outer loop
         vertex 6.460000e+02 1.178793e+02 -4.149969e+02
         vertex 1.780000e+02 1.178793e+02 -4.149969e+02
         vertex 1.780000e+02 1.539417e+02 -3.789344e+02
      endloop
   endfacet
   facet normal 1.000000e+00 -2.352496e-16 -1.060575e-16
      outer loop
         vertex 6.460000e+02 1.405067e+02 -3.654994e+02
         vertex 6.460000e+02 1.178793e+02 -4.149969e+02
         vertex 6.460000e+02 1.539417e+02 -3.789344e+02
      endloop
   endfacet
   facet normal 2.413404e-16 7.071054e-01 7.071081e-01
      outer loop
         vertex 1.780000e+02 1.405067e+02 -3.654994e+02
         vertex 6.460000e+02 1.405067e+02 -3.654994e+02
         vertex 6.460000e+02 1.539417e+02 -3.789344e+02
      endloop
   endfacet
   facet normal 2.413404e-16 7.071057e-01 7.071079e-01
      outer loop
         vertex 6.426358e+02 1.392348e+02 -3.274580e+02
         vertex 6.460000e+02 1.588915e+02 -3.471147e+02
         vertex 1.780000e+02 1.588915e+02 -3.471147e+02
      endloop
   endfacet
   facet normal -1.000000e+00 2.352496e-16 1.060575e-16
      outer loop
         vertex 1.780000e+02 1.405067e+02 -3.654994e+02
         vertex 1.780000e+02 1.461636e+02 -3.343867e+02
         vertex 1.780000e+02 1.588915e+02 -3.471147e+02
      endloop
   endfacet
   facet normal -3.177672e-08 7.071053e-01 7.071083e-01
      outer loop
         vertex 1.780000e+02 1.461636e+02 -3.343867e+02
         vertex 6.365801e+02 1.392348e+02 -3.274580e+02
         vertex 1.780000e+02 1.588915e+02 -3.471147e+02
      endloop
   endfacet
   facet normal 2.413404e-16 7.071057e-01 7.071079e-01
      outer loop
         vertex 6.365801e+02 1.392348e+02 -3.274580e+02
         vertex 6.426358e+02 1.392348e+02 -3.274580e+02
         vertex 1.780000e+02 1.588915e+02 -3.471147e+02
      endloop
   endfacet
   facet normal 9.135254e-17 7.071066e-01 -7.071069e-01
      outer loop
         vertex 6.460000e+02 1.588915e+02 -3.471147e+02
         vertex 6.460000e+02 1.405067e+02 -3.654994e+02
         vertex 1.780000e+02 1.588915e+02 -3.471147e+02
      endloop
   endfacet
   facet normal 9.135254e-17 7.071066e-01 -7.071069e-01
      outer loop
         vertex 6.460000e+02 1.405067e+02 -3.654994e+02
         vertex 1.780000e+02 1.405067e+02 -3.654994e+02
         vertex 1.780000e+02 1.588915e+02 -3.471147e+02
      endloop
   endfacet
   facet normal 1.000000e+00 -2.352496e-16 -1.060575e-16
      outer loop
         vertex 6.460000e+02 1.392348e+02 -3.274580e+02
         vertex 6.460000e+02 1.405067e+02 -3.654994e+02
         vertex 6.460000e+02 1.588915e+02 -3.471147e+02
      endloop
   endfacet
   facet normal 2.413404e-16 7.071057e-01 7.071079e-01
      outer loop
         vertex 6.426358e+02 1.392348e+02 -3.274580e+02
         vertex 6.460000e+02 1.392348e+02 -3.274580e+02
         vertex 6.460000e+02 1.588915e+02 -3.471147e+02
      endloop
   endfacet
   facet normal -1.000000e+00 2.352496e-16 1.060575e-16
      outer loop
         vertex 1.780000e+02 -3.440543e+02 -6.500525e+02
         vertex 1.780000e+02 -3.444643e+02 -6.493836e+02
         vertex 1.780000e+02 1.178793e+02 -4.149969e+02
      endloop
   endfacet
   facet normal -1.000000e+00 2.352496e-16 1.060575e-16
      outer loop
         vertex 1.780000e+02 -3.435448e+02 -6.506492e+02
         vertex 1.780000e+02 -3.440543e+02 -6.500525e+02
         vertex 1.780000e+02 1.178793e+02 -4.149969e+02
      endloop
   endfacet
   facet normal -1.000000e+00 2.352496e-16 1.060575e-16
      outer loop
         vertex 1.780000e+02 -3.444643e+02 -6.493836e+02
         vertex 1.780000e+02 -3.447646e+02 -6.486588e+02
         vertex 1.780000e+02 1.178793e+02 -4.149969e+02
      endloop
   endfacet
   facet normal -1.000000e+00 2.352496e-16 1.060575e-16
      outer loop
         vertex 1.780000e+02 -3.449477e+02 -6.478958e+02
         vertex 1.780000e+02 -3.450093e+02 -6.471136e+02
         vertex 1.780000e+02 1.178793e+02 -4.149969e+02
      endloop
   endfacet
   facet normal -1.000000e+00 2.352496e-16 1.060575e-16
      outer loop
         vertex 1.780000e+02 -3.447646e+02 -6.486588e+02
         vertex 1.780000e+02 -3.449477e+02 -6.478958e+02
         vertex 1.780000e+02 1.178793e+02 -4.149969e+02
      endloop
   endfacet
   facet normal -1.000000e+00 2.352496e-16 1.060575e-16
      outer loop
         vertex 1.780000e+02 -2.934491e+02 -7.007450e+02
         vertex 1.780000e+02 -3.435448e+02 -6.506492e+02
         vertex 1.780000e+02 1.178793e+02 -4.149969e+02
      endloop
   endfacet
   facet normal -1.000000e+00 2.352496e-16 1.060575e-16
      outer loop
         vertex 1.780000e+02 -2.638928e+02 -7.303010e+02
         vertex 1.780000e+02 -2.934491e+02 -7.007450e+02
         vertex 1.780000e+02 1.178793e+02 -4.149969e+02
      endloop
   endfacet
   facet normal -1.000000e+00 2.352496e-16 1.060575e-16
      outer loop
         vertex 1.780000e+02 -3.450093e+02 -6.471136e+02
         vertex 1.780000e+02 -3.450092e+02 -2.039158e+02
         vertex 1.780000e+02 1.178793e+02 -4.149969e+02
      endloop
   endfacet
   facet normal 1.000000e+00 -2.352496e-16 -1.060575e-16
      outer loop
         vertex 6.460000e+02 1.405067e+02 -3.654994e+02
         vertex 6.460000e+02 -1.734486e+02 -8.661310e+02
         vertex 6.460000e+02 1.178793e+02 -4.149969e+02
      endloop
   endfacet
   facet normal -1.000000e+00 2.352496e-16 1.060575e-16
      outer loop
         vertex 1.780000e+02 1.392348e+02 -3.274580e+02
         vertex 1.780000e+02 1.461636e+02 -3.343867e+02
         vertex 1.780000e+02 1.405067e+02 -3.654994e+02
      endloop
   endfacet
   facet normal -1.000000e+00 2.352496e-16 1.060575e-16
      outer loop
         vertex 1.780000e+02 -3.450092e+02 -2.039158e+02
         vertex 1.780000e+02 1.392348e+02 -3.274580e+02
         vertex 1.780000e+02 1.405067e+02 -3.654994e+02
      endloop
   endfacet
   facet normal 1.000000e+00 -2.352496e-16 -1.060575e-16
      outer loop
         vertex 6.460000e+02 1.392348e+02 -3.274580e+02
         vertex 6.460000e+02 1.390925e+02 -3.273157e+02
         vertex 6.460000e+02 1.405067e+02 -3.654994e+02
      endloop
   endfacet
   facet normal 1.000000e+00 -2.352496e-16 -1.060575e-16
      outer loop
         vertex 6.460000e+02 1.390925e+02 -3.273157e+02
         vertex 6.460000e+02 -1.734486e+02 -8.661310e+02
         vertex 6.460000e+02 1.405067e+02 -3.654994e+02
      endloop
   endfacet
   facet normal 2.413405e-16 7.071063e-01 7.071072e-01
      outer loop
         vertex 4.268876e+02 1.392348e+02 -3.274580e+02
         vertex 5.875866e+02 1.392348e+02 -3.274580e+02
         vertex 1.780000e+02 1.461636e+02 -3.343867e+02
      endloop
   endfacet
   facet normal 2.413405e-16 7.071063e-01 7.071072e-01
      outer loop
         vertex 5.875866e+02 1.392348e+02 -3.274580e+02
         vertex 6.365801e+02 1.392348e+02 -3.274580e+02
         vertex 1.780000e+02 1.461636e+02 -3.343867e+02
      endloop
   endfacet
   facet normal 2.413405e-16 7.071063e-01 7.071072e-01
      outer loop
         vertex 4.072902e+02 1.392348e+02 -3.274580e+02
         vertex 4.268876e+02 1.392348e+02 -3.274580e+02
         vertex 1.780000e+02 1.461636e+02 -3.343867e+02
      endloop
   endfacet
   facet normal 2.413405e-16 7.071063e-01 7.071072e-01
      outer loop
         vertex 3.876926e+02 1.392348e+02 -3.274580e+02
         vertex 4.072902e+02 1.392348e+02 -3.274580e+02
         vertex 1.780000e+02 1.461636e+02 -3.343867e+02
      endloop
   endfacet
   facet normal 2.413405e-16 7.071063e-01 7.071072e-01
      outer loop
         vertex 1.780000e+02 1.392348e+02 -3.274580e+02
         vertex 2.269936e+02 1.392348e+02 -3.274580e+02
         vertex 1.780000e+02 1.461636e+02 -3.343867e+02
      endloop
   endfacet
   facet normal 2.413405e-16 7.071063e-01 7.071072e-01
      outer loop
         vertex 2.269936e+02 1.392348e+02 -3.274580e+02
         vertex 3.876926e+02 1.392348e+02 -3.274580e+02
         vertex 1.780000e+02 1.461636e+02 -3.343867e+02
      endloop
   endfacet
   facet normal 2.413406e-16 7.071067e-01 7.071068e-01
      outer loop
         vertex 6.460000e+02 1.166729e+02 -3.047651e+02
         vertex 6.460000e+02 1.393003e+02 -3.273925e+02
         vertex 1.780000e+02 1.393003e+02 -3.273925e+02
      endloop
   endfacet
   facet normal 9.132645e-17 7.070302e-01 -7.071834e-01
      outer loop
         vertex 6.460000e+02 1.393003e+02 -3.273925e+02
         vertex 4.072902e+02 1.392348e+02 -3.274580e+02
         vertex 1.780000e+02 1.393003e+02 -3.273925e+02
      endloop
   endfacet
   facet normal 9.132645e-17 7.070302e-01 -7.071834e-01
      outer loop
         vertex 4.072902e+02 1.392348e+02 -3.274580e+02
         vertex 3.876926e+02 1.392348e+02 -3.274580e+02
         vertex 1.780000e+02 1.393003e+02 -3.273925e+02
      endloop
   endfacet
   facet normal 9.132645e-17 7.070302e-01 -7.071834e-01
      outer loop
         vertex 3.876926e+02 1.392348e+02 -3.274580e+02
         vertex 2.269936e+02 1.392348e+02 -3.274580e+02
         vertex 1.780000e+02 1.393003e+02 -3.273925e+02
      endloop
   endfacet
   facet normal 2.413406e-16 7.071067e-01 7.071068e-01
      outer loop
         vertex 1.780000e+02 1.166729e+02 -3.047651e+02
         vertex 6.460000e+02 1.166729e+02 -3.047651e+02
         vertex 1.780000e+02 1.393003e+02 -3.273925e+02
      endloop
   endfacet
   facet normal 9.132645e-17 7.070302e-01 -7.071834e-01
      outer loop
         vertex 2.269936e+02 1.392348e+02 -3.274580e+02
         vertex 1.780000e+02 1.392348e+02 -3.274580e+02
         vertex 1.780000e+02 1.393003e+02 -3.273925e+02
      endloop
   endfacet
   facet normal -1.000000e+00 2.352496e-16 1.060575e-16
      outer loop
         vertex 1.780000e+02 1.392348e+02 -3.274580e+02
         vertex 1.780000e+02 1.166729e+02 -3.047651e+02
         vertex 1.780000e+02 1.393003e+02 -3.273925e+02
      endloop
   endfacet
   facet normal 1.000000e+00 -2.352496e-16 -1.060575e-16
      outer loop
         vertex 6.460000e+02 1.166729e+02 -3.047651e+02
         vertex 6.460000e+02 1.390925e+02 -3.273157e+02
         vertex 6.460000e+02 1.393003e+02 -3.273925e+02
      endloop
   endfacet
   facet normal 1.000000e+00 -2.352496e-16 -1.060575e-16
      outer loop
         vertex 6.460000e+02 1.390925e+02 -3.273157e+02
         vertex 6.460000e+02 1.392348e+02 -3.274580e+02
         vertex 6.460000e+02 1.393003e+02 -3.273925e+02
      endloop
   endfacet
   facet normal 9.132645e-17 7.070302e-01 -7.071834e-01
      outer loop
         vertex 6.460000e+02 1.392348e+02 -3.274580e+02
         vertex 6.426358e+02 1.392348e+02 -3.274580e+02
         vertex 6.460000e+02 1.393003e+02 -3.273925e+02
      endloop
   endfacet
   facet normal 9.132645e-17 7.070302e-01 -7.071834e-01
      outer loop
         vertex 5.875866e+02 1.392348e+02 -3.274580e+02
         vertex 4.268876e+02 1.392348e+02 -3.274580e+02
         vertex 6.460000e+02 1.393003e+02 -3.273925e+02
      endloop
   endfacet
   facet normal 9.132645e-17 7.070302e-01 -7.071834e-01
      outer loop
         vertex 6.365801e+02 1.392348e+02 -3.274580e+02
         vertex 5.875866e+02 1.392348e+02 -3.274580e+02
         vertex 6.460000e+02 1.393003e+02 -3.273925e+02
      endloop
   endfacet
   facet normal 9.132645e-17 7.070302e-01 -7.071834e-01
      outer loop
         vertex 6.426358e+02 1.392348e+02 -3.274580e+02
         vertex 6.365801e+02 1.392348e+02 -3.274580e+02
         vertex 6.460000e+02 1.393003e+02 -3.273925e+02
      endloop
   endfacet
   facet normal 9.132645e-17 7.070302e-01 -7.071834e-01
      outer loop
         vertex 4.268876e+02 1.392348e+02 -3.274580e+02
         vertex 4.072902e+02 1.392348e+02 -3.274580e+02
         vertex 6.460000e+02 1.393003e+02 -3.273925e+02
      endloop
   endfacet
   facet normal -1.000000e+00 2.352496e-16 1.060575e-16
      outer loop
         vertex 1.780000e+02 -3.450092e+02 -2.039158e+02
         vertex 1.780000e+02 1.166729e+02 -3.047651e+02
         vertex 1.780000e+02 1.392348e+02 -3.274580e+02
      endloop
   endfacet
   facet normal 1.000000e+00 -2.352496e-16 -1.060575e-16
      outer loop
         vertex 6.460000e+02 -3.444630e+02 -6.493860e+02
         vertex 6.460000e+02 -3.440535e+02 -6.500536e+02
         vertex 6.460000e+02 1.390925e+02 -3.273157e+02
      endloop
   endfacet
   facet normal 1.000000e+00 -2.352496e-16 -1.060575e-16
      outer loop
         vertex 6.460000e+02 -3.440535e+02 -6.500536e+02
         vertex 6.460000e+02 -2.638928e+02 -7.303010e+02
         vertex 6.460000e+02 1.390925e+02 -3.273157e+02
      endloop
   endfacet
   facet normal 1.000000e+00 -2.352496e-16 -1.060575e-16
      outer loop
         vertex 6.460000e+02 -2.638928e+02 -7.303010e+02
         vertex 6.460000e+02 -1.734486e+02 -8.661310e+02
         vertex 6.460000e+02 1.390925e+02 -3.273157e+02
      endloop
   endfacet
   facet normal 1.000000e+00 -2.352496e-16 -1.060575e-16
      outer loop
         vertex 6.460000e+02 -3.447640e+02 -6.486605e+02
         vertex 6.460000e+02 -3.444630e+02 -6.493860e+02
         vertex 6.460000e+02 1.390925e+02 -3.273157e+02
      endloop
   endfacet
   facet normal 1.000000e+00 -2.352496e-16 -1.060575e-16
      outer loop
         vertex 6.460000e+02 -3.449475e+02 -6.478967e+02
         vertex 6.460000e+02 -3.447640e+02 -6.486605e+02
         vertex 6.460000e+02 1.390925e+02 -3.273157e+02
      endloop
   endfacet
   facet normal 1.000000e+00 -2.352496e-16 -1.060575e-16
      outer loop
         vertex 6.460000e+02 -3.450093e+02 -6.471136e+02
         vertex 6.460000e+02 -3.449475e+02 -6.478967e+02
         vertex 6.460000e+02 1.390925e+02 -3.273157e+02
      endloop
   endfacet
   facet normal 1.000000e+00 -2.352496e-16 -1.060575e-16
      outer loop
         vertex 6.460000e+02 -3.450092e+02 -2.039158e+02
         vertex 6.460000e+02 -3.450093e+02 -6.471136e+02
         vertex 6.460000e+02 1.390925e+02 -3.273157e+02
      endloop
   endfacet
   facet normal 1.000000e+00 -2.352496e-16 -1.060575e-16
      outer loop
         vertex 6.460000e+02 1.166729e+02 -3.047651e+02
         vertex 6.460000e+02 -3.450092e+02 -2.039158e+02
         vertex 6.460000e+02 1.390925e+02 -3.273157e+02
      endloop
   endfacet
   facet normal -2.413405e-16 -7.071064e-01 -7.071072e-01
      outer loop
         vertex 6.460000e+02 -1.734486e+02 -8.661310e+02
         vertex 6.460000e+02 -3.099203e+02 -7.296594e+02
         vertex 1.800000e+02 -1.734486e+02 -8.661310e+02
      endloop
   endfacet
   facet normal 6.994798e-07 -7.071052e-01 -7.071084e-01
      outer loop
         vertex 6.460000e+02 -3.099203e+02 -7.296594e+02
         vertex 1.800000e+02 -2.208248e+02 -8.187549e+02
         vertex 1.800000e+02 -1.734486e+02 -8.661310e+02
      endloop
   endfacet
   facet normal 1.000000e+00 -2.352496e-16 -1.060575e-16
      outer loop
         vertex 6.460000e+02 -2.674939e+02 -7.339021e+02
         vertex 6.460000e+02 -2.908284e+02 -7.105676e+02
         vertex 6.460000e+02 -1.734486e+02 -8.661310e+02
      endloop
   endfacet
   facet normal 1.000000e+00 -2.352496e-16 -1.060575e-16
      outer loop
         vertex 6.460000e+02 -2.638928e+02 -7.303010e+02
         vertex 6.460000e+02 -2.674939e+02 -7.339021e+02
         vertex 6.460000e+02 -1.734486e+02 -8.661310e+02
      endloop
   endfacet
   facet normal 1.000000e+00 -2.352496e-16 -1.060575e-16
      outer loop
         vertex 6.460000e+02 -2.908284e+02 -7.105676e+02
         vertex 6.460000e+02 -3.099203e+02 -7.296594e+02
         vertex 6.460000e+02 -1.734486e+02 -8.661310e+02
      endloop
   endfacet
   facet normal 1.997839e-16 9.659258e-01 -2.588192e-01
      outer loop
         vertex 1.780000e+02 1.905924e+02 -5.178382e+01
         vertex 6.460000e+02 1.250513e+02 -2.963867e+02
         vertex 1.780000e+02 1.250513e+02 -2.963867e+02
      endloop
   endfacet
   facet normal 9.135286e-17 7.071076e-01 -7.071060e-01
      outer loop
         vertex 6.460000e+02 1.166729e+02 -3.047651e+02
         vertex 1.780000e+02 1.166729e+02 -3.047651e+02
         vertex 1.780000e+02 1.250513e+02 -2.963867e+02
      endloop
   endfacet
   facet normal 9.135286e-17 7.071076e-01 -7.071060e-01
      outer loop
         vertex 6.460000e+02 1.250513e+02 -2.963867e+02
         vertex 6.460000e+02 1.166729e+02 -3.047651e+02
         vertex 1.780000e+02 1.250513e+02 -2.963867e+02
      endloop
   endfacet
   facet normal -1.000000e+00 2.352496e-16 1.060575e-16
      outer loop
         vertex 1.780000e+02 1.166729e+02 -3.047651e+02
         vertex 1.780000e+02 3.808234e+01 -1.937957e+02
         vertex 1.780000e+02 1.250513e+02 -2.963867e+02
      endloop
   endfacet
   facet normal -1.000000e+00 2.352496e-16 1.060575e-16
      outer loop
         vertex 1.780000e+02 3.808234e+01 -1.937957e+02
         vertex 1.780000e+02 8.392617e+01 -1.787832e+02
         vertex 1.780000e+02 1.250513e+02 -2.963867e+02
      endloop
   endfacet
   facet normal -1.000000e+00 2.352496e-16 1.060575e-16
      outer loop
         vertex 1.780000e+02 8.392617e+01 -1.787832e+02
         vertex 1.780000e+02 1.247632e+02 -1.531051e+02
         vertex 1.780000e+02 1.250513e+02 -2.963867e+02
      endloop
   endfacet
   facet normal -1.000000e+00 2.352496e-16 1.060575e-16
      outer loop
         vertex 1.780000e+02 1.821163e+02 -7.642444e+01
         vertex 1.780000e+02 1.905924e+02 -5.178382e+01
         vertex 1.780000e+02 1.250513e+02 -2.963867e+02
      endloop
   endfacet
   facet normal -1.000000e+00 2.352496e-16 1.060575e-16
      outer loop
         vertex 1.780000e+02 1.247632e+02 -1.531051e+02
         vertex 1.780000e+02 1.581573e+02 -1.182933e+02
         vertex 1.780000e+02 1.250513e+02 -2.963867e+02
      endloop
   endfacet
   facet normal -1.000000e+00 2.352496e-16 1.060575e-16
      outer loop
         vertex 1.780000e+02 1.581573e+02 -1.182933e+02
         vertex 1.780000e+02 1.821163e+02 -7.642444e+01
         vertex 1.780000e+02 1.250513e+02 -2.963867e+02
      endloop
   endfacet
   facet normal 1.997839e-16 9.659258e-01 -2.588192e-01
      outer loop
         vertex 1.780000e+02 1.905924e+02 -5.178382e+01
         vertex 6.460000e+02 1.905924e+02 -5.178382e+01
         vertex 6.460000e+02 1.250513e+02 -2.963867e+02
      endloop
   endfacet
   facet normal 1.000000e+00 -2.352496e-16 -1.060575e-16
      outer loop
         vertex 6.460000e+02 1.905924e+02 -5.178382e+01
         vertex 6.460000e+02 -1.716028e+02 9.777285e+01
         vertex 6.460000e+02 1.250513e+02 -2.963867e+02
      endloop
   endfacet
   facet normal 1.000000e+00 -2.352496e-16 -1.060575e-16
      outer loop
         vertex 6.460000e+02 -1.716028e+02 9.777285e+01
         vertex 6.460000e+02 -3.443394e+02 -2.014158e+02
         vertex 6.460000e+02 1.250513e+02 -2.963867e+02
      endloop
   endfacet
   facet normal 1.000000e+00 -2.352496e-16 -1.060575e-16
      outer loop
         vertex 6.460000e+02 -3.443394e+02 -2.014158e+02
         vertex 6.460000e+02 1.166729e+02 -3.047651e+02
         vertex 6.460000e+02 1.250513e+02 -2.963867e+02
      endloop
   endfacet
   facet normal -1.000000e+00 2.352496e-16 1.060575e-16
      outer loop
         vertex 1.780000e+02 -3.450092e+02 -2.039158e+02
         vertex 1.780000e+02 -5.755047e+01 -1.889312e+02
         vertex 1.780000e+02 1.166729e+02 -3.047651e+02
      endloop
   endfacet
   facet normal -1.000000e+00 2.352496e-16 1.060575e-16
      outer loop
         vertex 1.780000e+02 -5.755047e+01 -1.889312e+02
         vertex 1.780000e+02 -1.003334e+01 -1.972470e+02
         vertex 1.780000e+02 1.166729e+02 -3.047651e+02
      endloop
   endfacet
   facet normal -1.000000e+00 2.352496e-16 1.060575e-16
      outer loop
         vertex 1.780000e+02 -1.003334e+01 -1.972470e+02
         vertex 1.780000e+02 3.808234e+01 -1.937957e+02
         vertex 1.780000e+02 1.166729e+02 -3.047651e+02
      endloop
   endfacet
   facet normal 1.000000e+00 -2.352496e-16 -1.060575e-16
      outer loop
         vertex 6.460000e+02 -3.450023e+02 -2.036555e+02
         vertex 6.460000e+02 -3.450092e+02 -2.039158e+02
         vertex 6.460000e+02 1.166729e+02 -3.047651e+02
      endloop
   endfacet
   facet normal 1.000000e+00 -2.352496e-16 -1.060575e-16
      outer loop
         vertex 6.460000e+02 -3.448994e+02 -2.028773e+02
         vertex 6.460000e+02 -3.450023e+02 -2.036555e+02
         vertex 6.460000e+02 1.166729e+02 -3.047651e+02
      endloop
   endfacet
   facet normal 1.000000e+00 -2.352496e-16 -1.060575e-16
      outer loop
         vertex 6.460000e+02 -3.443394e+02 -2.014158e+02
         vertex 6.460000e+02 -3.446766e+02 -2.021245e+02
         vertex 6.460000e+02 1.166729e+02 -3.047651e+02
      endloop
   endfacet
   facet normal 1.000000e+00 -2.352496e-16 -1.060575e-16
      outer loop
         vertex 6.460000e+02 -3.446766e+02 -2.021245e+02
         vertex 6.460000e+02 -3.448994e+02 -2.028773e+02
         vertex 6.460000e+02 1.166729e+02 -3.047651e+02
      endloop
   endfacet
   facet normal -1.235409e-06 -7.071103e-01 -7.071033e-01
      outer loop
         vertex 6.460000e+02 -3.099203e+02 -7.296594e+02
         vertex 1.800000e+02 -2.370882e+02 -8.024914e+02
         vertex 1.800000e+02 -2.208248e+02 -8.187549e+02
      endloop
   endfacet
   facet normal 9.634826e-17 7.216488e-01 -6.922594e-01
      outer loop
         vertex 1.780000e+02 1.247632e+02 -1.531051e+02
         vertex 7.800000e+01 1.247632e+02 -1.531051e+02
         vertex 7.800000e+01 1.581573e+02 -1.182933e+02
      endloop
   endfacet
   facet normal 9.634826e-17 7.216488e-01 -6.922594e-01
      outer loop
         vertex 1.780000e+02 1.581573e+02 -1.182933e+02
         vertex 1.780000e+02 1.247632e+02 -1.531051e+02
         vertex 7.800000e+01 1.581573e+02 -1.182933e+02
      endloop
   endfacet
   facet normal -1.000000e+00 2.352496e-16 1.060575e-16
      outer loop
         vertex 7.800000e+01 1.247632e+02 -1.531051e+02
         vertex 7.800000e+01 -1.787832e+02 8.392622e+01
         vertex 7.800000e+01 1.581573e+02 -1.182933e+02
      endloop
   endfacet
   facet normal 1.515071e-16 8.679401e-01 -4.966690e-01
      outer loop
         vertex 7.800000e+01 1.821163e+02 -7.642444e+01
         vertex 1.780000e+02 1.581573e+02 -1.182933e+02
         vertex 7.800000e+01 1.581573e+02 -1.182933e+02
      endloop
   endfacet
   facet normal -1.000000e+00 2.352496e-16 1.060575e-16
      outer loop
         vertex 7.800000e+01 -1.787832e+02 8.392622e+01
         vertex 7.800000e+01 1.821163e+02 -7.642444e+01
         vertex 7.800000e+01 1.581573e+02 -1.182933e+02
      endloop
   endfacet
   facet normal 1.515071e-16 8.679401e-01 -4.966690e-01
      outer loop
         vertex 7.800000e+01 1.821163e+02 -7.642444e+01
         vertex 1.780000e+02 1.821163e+02 -7.642444e+01
         vertex 1.780000e+02 1.581573e+02 -1.182933e+02
      endloop
   endfacet
   facet normal -1.000000e+00 2.352496e-16 1.060575e-16
      outer loop
         vertex 7.800000e+01 -2.999633e+01 1.952108e+02
         vertex 7.800000e+01 1.952108e+02 -2.999637e+01
         vertex 7.800000e+01 1.821163e+02 -7.642444e+01
      endloop
   endfacet
   facet normal -1.000000e+00 2.352496e-16 1.060575e-16
      outer loop
         vertex 7.800000e+01 -1.531051e+02 1.247633e+02
         vertex 7.800000e+01 -1.182932e+02 1.581574e+02
         vertex 7.800000e+01 1.821163e+02 -7.642444e+01
      endloop
   endfacet
   facet normal -1.000000e+00 2.352496e-16 1.060575e-16
      outer loop
         vertex 7.800000e+01 -1.182932e+02 1.581574e+02
         vertex 7.800000e+01 -7.642439e+01 1.821163e+02
         vertex 7.800000e+01 1.821163e+02 -7.642444e+01
      endloop
   endfacet
   facet normal -1.000000e+00 2.352496e-16 1.060575e-16
      outer loop
         vertex 7.800000e+01 -7.642439e+01 1.821163e+02
         vertex 7.800000e+01 -2.999633e+01 1.952108e+02
         vertex 7.800000e+01 1.821163e+02 -7.642444e+01
      endloop
   endfacet
   facet normal -1.469064e-02 9.623491e-01 -2.714193e-01
      outer loop
         vertex 7.800000e+01 1.952108e+02 -2.999637e+01
         vertex 1.780000e+02 1.905924e+02 -5.178382e+01
         vertex 7.800000e+01 1.821163e+02 -7.642444e+01
      endloop
   endfacet
   facet normal 1.879572e-16 9.456167e-01 -3.252831e-01
      outer loop
         vertex 1.780000e+02 1.905924e+02 -5.178382e+01
         vertex 1.780000e+02 1.821163e+02 -7.642444e+01
         vertex 7.800000e+01 1.821163e+02 -7.642444e+01
      endloop
   endfacet
   facet normal -1.000000e+00 2.352496e-16 1.060575e-16
      outer loop
         vertex 7.800000e+01 -1.787832e+02 8.392622e+01
         vertex 7.800000e+01 -1.531051e+02 1.247633e+02
         vertex 7.800000e+01 1.821163e+02 -7.642444e+01
      endloop
   endfacet
   facet normal -1.000000e+00 2.352496e-16 1.060575e-16
      outer loop
         vertex 1.780000e+02 -3.099203e+02 -7.296594e+02
         vertex 1.780000e+02 -2.908284e+02 -7.105676e+02
         vertex 1.780000e+02 -2.370882e+02 -8.024914e+02
      endloop
   endfacet
   facet normal -1.000000e+00 2.352496e-16 1.060575e-16
      outer loop
         vertex 1.780000e+02 -2.908284e+02 -7.105676e+02
         vertex 1.780000e+02 -2.674939e+02 -7.339021e+02
         vertex 1.780000e+02 -2.370882e+02 -8.024914e+02
      endloop
   endfacet
   facet normal -1.000000e+00 2.352496e-16 1.060575e-16
      outer loop
         vertex 1.780000e+02 -2.674939e+02 -7.339021e+02
         vertex 1.780000e+02 -2.638928e+02 -7.303010e+02
         vertex 1.780000e+02 -2.370882e+02 -8.024914e+02
      endloop
   endfacet
   facet normal -2.413405e-16 -7.071063e-01 -7.071072e-01
      outer loop
         vertex 6.460000e+02 -3.099203e+02 -7.296594e+02
         vertex 1.780000e+02 -3.099203e+02 -7.296594e+02
         vertex 1.780000e+02 -2.370882e+02 -8.024914e+02
      endloop
   endfacet
   facet normal -2.413405e-16 -7.071063e-01 -7.071072e-01
      outer loop
         vertex 1.800000e+02 -2.370882e+02 -8.024914e+02
         vertex 6.460000e+02 -3.099203e+02 -7.296594e+02
         vertex 1.780000e+02 -2.370882e+02 -8.024914e+02
      endloop
   endfacet
   facet normal 2.081434e-16 9.782635e-01 -2.073656e-01
      outer loop
         vertex 7.800000e+01 1.952108e+02 -2.999637e+01
         vertex 6.460000e+02 1.952108e+02 -2.999637e+01
         vertex 1.780000e+02 1.905924e+02 -5.178382e+01
      endloop
   endfacet
   facet normal 2.081434e-16 9.782635e-01 -2.073656e-01
      outer loop
         vertex 6.460000e+02 1.952108e+02 -2.999637e+01
         vertex 6.460000e+02 1.905924e+02 -5.178382e+01
         vertex 1.780000e+02 1.905924e+02 -5.178382e+01
      endloop
   endfacet
   facet normal 1.000000e+00 -2.352496e-16 -1.060575e-16
      outer loop
         vertex 6.460000e+02 1.952108e+02 -2.999637e+01
         vertex 6.460000e+02 -1.716028e+02 9.777285e+01
         vertex 6.460000e+02 1.905924e+02 -5.178382e+01
      endloop
   endfacet
   facet normal 3.544179e-17 5.323067e-01 -8.465515e-01
      outer loop
         vertex 1.780000e+02 8.392617e+01 -1.787832e+02
         vertex 7.800000e+01 8.392617e+01 -1.787832e+02
         vertex 7.800000e+01 1.247632e+02 -1.531051e+02
      endloop
   endfacet
   facet normal -1.000000e+00 2.352496e-16 1.060575e-16
      outer loop
         vertex 7.800000e+01 8.392617e+01 -1.787832e+02
         vertex 7.800000e+01 -1.889312e+02 -5.755042e+01
         vertex 7.800000e+01 1.247632e+02 -1.531051e+02
      endloop
   endfacet
   facet normal 3.544179e-17 5.323067e-01 -8.465515e-01
      outer loop
         vertex 1.780000e+02 1.247632e+02 -1.531051e+02
         vertex 1.780000e+02 8.392617e+01 -1.787832e+02
         vertex 7.800000e+01 1.247632e+02 -1.531051e+02
      endloop
   endfacet
   facet normal -1.000000e+00 2.352496e-16 1.060575e-16
      outer loop
         vertex 7.800000e+01 -1.889312e+02 -5.755042e+01
         vertex 7.800000e+01 -1.972470e+02 -1.003328e+01
         vertex 7.800000e+01 1.247632e+02 -1.531051e+02
      endloop
   endfacet
   facet normal -1.000000e+00 2.352496e-16 1.060575e-16
      outer loop
         vertex 7.800000e+01 -1.972470e+02 -1.003328e+01
         vertex 7.800000e+01 -1.937957e+02 3.808240e+01
         vertex 7.800000e+01 1.247632e+02 -1.531051e+02
      endloop
   endfacet
   facet normal -1.000000e+00 2.352496e-16 1.060575e-16
      outer loop
         vertex 7.800000e+01 -1.937957e+02 3.808240e+01
         vertex 7.800000e+01 -1.787832e+02 8.392622e+01
         vertex 7.800000e+01 1.247632e+02 -1.531051e+02
      endloop
   endfacet
   facet normal -1.000000e+00 2.352496e-16 1.060575e-16
      outer loop
         vertex 7.800000e+01 -2.999633e+01 1.952108e+02
         vertex 7.800000e+01 1.966597e+02 1.822117e+01
         vertex 7.800000e+01 1.952108e+02 -2.999637e+01
      endloop
   endfacet
   facet normal 2.319580e-16 9.995488e-01 -3.003498e-02
      outer loop
         vertex 7.800000e+01 1.966597e+02 1.822117e+01
         vertex 6.460000e+02 1.952108e+02 -2.999637e+01
         vertex 7.800000e+01 1.952108e+02 -2.999637e+01
      endloop
   endfacet
   facet normal 1.000000e+00 -2.352496e-16 -1.060575e-16
      outer loop
         vertex 6.460000e+02 1.966597e+02 1.822117e+01
         vertex 6.460000e+02 -1.531051e+02 1.247633e+02
         vertex 6.460000e+02 1.952108e+02 -2.999637e+01
      endloop
   endfacet
   facet normal 1.000000e+00 -2.352496e-16 -1.060575e-16
      outer loop
         vertex 6.460000e+02 -1.531051e+02 1.247633e+02
         vertex 6.460000e+02 -1.716028e+02 9.777285e+01
         vertex 6.460000e+02 1.952108e+02 -2.999637e+01
      endloop
   endfacet
   facet normal 2.319580e-16 9.995488e-01 -3.003498e-02
      outer loop
         vertex 7.800000e+01 1.966597e+02 1.822117e+01
         vertex 6.460000e+02 1.966597e+02 1.822117e+01
         vertex 6.460000e+02 1.952108e+02 -2.999637e+01
      endloop
   endfacet
   facet normal -2.757916e-17 3.112087e-01 -9.503416e-01
      outer loop
         vertex 1.780000e+02 3.808234e+01 -1.937957e+02
         vertex 7.800000e+01 3.808234e+01 -1.937957e+02
         vertex 7.800000e+01 8.392617e+01 -1.787832e+02
      endloop
   endfacet
   facet normal -2.757916e-17 3.112087e-01 -9.503416e-01
      outer loop
         vertex 1.780000e+02 8.392617e+01 -1.787832e+02
         vertex 1.780000e+02 3.808234e+01 -1.937957e+02
         vertex 7.800000e+01 8.392617e+01 -1.787832e+02
      endloop
   endfacet
   facet normal -1.000000e+00 2.352496e-16 1.060575e-16
      outer loop
         vertex 7.800000e+01 3.808234e+01 -1.937957e+02
         vertex 7.800000e+01 -1.889312e+02 -5.755042e+01
         vertex 7.800000e+01 8.392617e+01 -1.787832e+02
      endloop
   endfacet
   facet normal -1.000000e+00 2.352496e-16 1.060575e-16
      outer loop
         vertex 7.800000e+01 1.822122e+01 1.966597e+02
         vertex 7.800000e+01 1.863765e+02 6.535169e+01
         vertex 7.800000e+01 1.966597e+02 1.822117e+01
      endloop
   endfacet
   facet normal -1.000000e+00 2.352496e-16 1.060575e-16
      outer loop
         vertex 7.800000e+01 -2.999633e+01 1.952108e+02
         vertex 7.800000e+01 1.822122e+01 1.966597e+02
         vertex 7.800000e+01 1.966597e+02 1.822117e+01
      endloop
   endfacet
   facet normal 2.524507e-16 9.770150e-01 2.131704e-01
      outer loop
         vertex 7.800000e+01 1.863765e+02 6.535169e+01
         vertex 6.460000e+02 1.966597e+02 1.822117e+01
         vertex 7.800000e+01 1.966597e+02 1.822117e+01
      endloop
   endfacet
   facet normal 1.000000e+00 -2.352496e-16 -1.060575e-16
      outer loop
         vertex 6.460000e+02 -1.182932e+02 1.581574e+02
         vertex 6.460000e+02 -1.531051e+02 1.247633e+02
         vertex 6.460000e+02 1.966597e+02 1.822117e+01
      endloop
   endfacet
   facet normal 1.000000e+00 -2.352496e-16 -1.060575e-16
      outer loop
         vertex 6.460000e+02 -7.642439e+01 1.821163e+02
         vertex 6.460000e+02 -1.182932e+02 1.581574e+02
         vertex 6.460000e+02 1.966597e+02 1.822117e+01
      endloop
   endfacet
   facet normal 1.000000e+00 -2.352496e-16 -1.060575e-16
      outer loop
         vertex 6.460000e+02 -2.999633e+01 1.952108e+02
         vertex 6.460000e+02 -7.642439e+01 1.821163e+02
         vertex 6.460000e+02 1.966597e+02 1.822117e+01
      endloop
   endfacet
   facet normal 1.000000e+00 -2.352496e-16 -1.060575e-16
      outer loop
         vertex 6.460000e+02 1.822122e+01 1.966597e+02
         vertex 6.460000e+02 -2.999633e+01 1.952108e+02
         vertex 6.460000e+02 1.966597e+02 1.822117e+01
      endloop
   endfacet
   facet normal 1.000000e+00 -2.352496e-16 -1.060575e-16
      outer loop
         vertex 6.460000e+02 6.535174e+01 1.863765e+02
         vertex 6.460000e+02 1.822122e+01 1.966597e+02
         vertex 6.460000e+02 1.966597e+02 1.822117e+01
      endloop
   endfacet
   facet normal 1.000000e+00 -2.352496e-16 -1.060575e-16
      outer loop
         vertex 6.460000e+02 1.863765e+02 6.535169e+01
         vertex 6.460000e+02 6.535174e+01 1.863765e+02
         vertex 6.460000e+02 1.966597e+02 1.822117e+01
      endloop
   endfacet
   facet normal 2.524507e-16 9.770150e-01 2.131704e-01
      outer loop
         vertex 7.800000e+01 1.863765e+02 6.535169e+01
         vertex 6.460000e+02 1.863765e+02 6.535169e+01
         vertex 6.460000e+02 1.966597e+02 1.822117e+01
      endloop
   endfacet
   facet normal 8.369009e-08 -7.071045e-01 -7.071090e-01
      outer loop
         vertex 6.460000e+02 -2.934491e+02 -7.007450e+02
         vertex 5.999174e+02 -2.638928e+02 -7.303010e+02
         vertex 6.460000e+02 -2.638928e+02 -7.303010e+02
      endloop
   endfacet
   facet normal 3.123397e-07 -7.071096e-01 7.071040e-01
      outer loop
         vertex 5.999174e+02 -2.638928e+02 -7.303010e+02
         vertex 5.960000e+02 -2.674939e+02 -7.339021e+02
         vertex 6.460000e+02 -2.638928e+02 -7.303010e+02
      endloop
   endfacet
   facet normal 1.000000e+00 -2.352496e-16 -1.060575e-16
      outer loop
         vertex 6.460000e+02 -3.440535e+02 -6.500536e+02
         vertex 6.460000e+02 -2.934491e+02 -7.007450e+02
         vertex 6.460000e+02 -2.638928e+02 -7.303010e+02
      endloop
   endfacet
   facet normal -9.135280e-17 -7.071074e-01 7.071062e-01
      outer loop
         vertex 5.960000e+02 -2.674939e+02 -7.339021e+02
         vertex 6.460000e+02 -2.674939e+02 -7.339021e+02
         vertex 6.460000e+02 -2.638928e+02 -7.303010e+02
      endloop
   endfacet
   facet normal -9.135348e-17 -7.071094e-01 7.071042e-01
      outer loop
         vertex 1.780000e+02 -2.674939e+02 -7.339021e+02
         vertex 2.146668e+02 -2.638928e+02 -7.303010e+02
         vertex 1.780000e+02 -2.638928e+02 -7.303010e+02
      endloop
   endfacet
   facet normal -2.413403e-16 -7.071046e-01 -7.071090e-01
      outer loop
         vertex 2.146668e+02 -2.638928e+02 -7.303010e+02
         vertex 1.780000e+02 -2.934491e+02 -7.007450e+02
         vertex 1.780000e+02 -2.638928e+02 -7.303010e+02
      endloop
   endfacet
   facet normal -9.135348e-17 -7.071094e-01 7.071042e-01
      outer loop
         vertex 2.280000e+02 -2.674939e+02 -7.339021e+02
         vertex 2.607494e+02 -2.638928e+02 -7.303010e+02
         vertex 2.146668e+02 -2.638928e+02 -7.303010e+02
      endloop
   endfacet
   facet normal -9.135348e-17 -7.071094e-01 7.071042e-01
      outer loop
         vertex 1.780000e+02 -2.674939e+02 -7.339021e+02
         vertex 2.280000e+02 -2.674939e+02 -7.339021e+02
         vertex 2.146668e+02 -2.638928e+02 -7.303010e+02
      endloop
   endfacet
   facet normal -2.413403e-16 -7.071046e-01 -7.071090e-01
      outer loop
         vertex 2.607494e+02 -2.638928e+02 -7.303010e+02
         vertex 1.780000e+02 -2.934491e+02 -7.007450e+02
         vertex 2.146668e+02 -2.638928e+02 -7.303010e+02
      endloop
   endfacet
   facet normal -9.135348e-17 -7.071094e-01 7.071042e-01
      outer loop
         vertex 3.920000e+02 -2.674939e+02 -7.339021e+02
         vertex 4.119003e+02 -2.638928e+02 -7.303010e+02
         vertex 2.607494e+02 -2.638928e+02 -7.303010e+02
      endloop
   endfacet
   facet normal -9.135348e-17 -7.071094e-01 7.071042e-01
      outer loop
         vertex 2.280000e+02 -2.674939e+02 -7.339021e+02
         vertex 3.920000e+02 -2.674939e+02 -7.339021e+02
         vertex 2.607494e+02 -2.638928e+02 -7.303010e+02
      endloop
   endfacet
   facet normal -2.413403e-16 -7.071046e-01 -7.071090e-01
      outer loop
         vertex 4.119003e+02 -2.638928e+02 -7.303010e+02
         vertex 1.780000e+02 -2.934491e+02 -7.007450e+02
         vertex 2.607494e+02 -2.638928e+02 -7.303010e+02
      endloop
   endfacet
   facet normal -9.135348e-17 -7.071094e-01 7.071042e-01
      outer loop
         vertex 4.320000e+02 -2.674939e+02 -7.339021e+02
         vertex 4.487664e+02 -2.638928e+02 -7.303010e+02
         vertex 4.119003e+02 -2.638928e+02 -7.303010e+02
      endloop
   endfacet
   facet normal -9.135348e-17 -7.071094e-01 7.071042e-01
      outer loop
         vertex 3.920000e+02 -2.674939e+02 -7.339021e+02
         vertex 4.320000e+02 -2.674939e+02 -7.339021e+02
         vertex 4.119003e+02 -2.638928e+02 -7.303010e+02
      endloop
   endfacet
   facet normal -2.413403e-16 -7.071046e-01 -7.071090e-01
      outer loop
         vertex 4.487664e+02 -2.638928e+02 -7.303010e+02
         vertex 6.460000e+02 -2.934491e+02 -7.007450e+02
         vertex 4.119003e+02 -2.638928e+02 -7.303010e+02
      endloop
   endfacet
   facet normal -2.413403e-16 -7.071046e-01 -7.071090e-01
      outer loop
         vertex 6.460000e+02 -2.934491e+02 -7.007450e+02
         vertex 1.780000e+02 -2.934491e+02 -7.007450e+02
         vertex 4.119003e+02 -2.638928e+02 -7.303010e+02
      endloop
   endfacet
   facet normal -9.135348e-17 -7.071094e-01 7.071042e-01
      outer loop
         vertex 5.960000e+02 -2.674939e+02 -7.339021e+02
         vertex 5.999174e+02 -2.638928e+02 -7.303010e+02
         vertex 4.487664e+02 -2.638928e+02 -7.303010e+02
      endloop
   endfacet
   facet normal -9.135348e-17 -7.071094e-01 7.071042e-01
      outer loop
         vertex 4.320000e+02 -2.674939e+02 -7.339021e+02
         vertex 5.960000e+02 -2.674939e+02 -7.339021e+02
         vertex 4.487664e+02 -2.638928e+02 -7.303010e+02
      endloop
   endfacet
   facet normal -2.413403e-16 -7.071046e-01 -7.071090e-01
      outer loop
         vertex 5.999174e+02 -2.638928e+02 -7.303010e+02
         vertex 6.460000e+02 -2.934491e+02 -7.007450e+02
         vertex 4.487664e+02 -2.638928e+02 -7.303010e+02
      endloop
   endfacet
   facet normal 2.413404e-16 7.071057e-01 7.071079e-01
      outer loop
         vertex 1.780000e+02 -2.908284e+02 -7.105676e+02
         vertex 6.460000e+02 -2.908284e+02 -7.105676e+02
         vertex 1.780000e+02 -2.674939e+02 -7.339021e+02
      endloop
   endfacet
   facet normal 2.413404e-16 7.071057e-01 7.071079e-01
      outer loop
         vertex 6.460000e+02 -2.908284e+02 -7.105676e+02
         vertex 2.280000e+02 -2.674939e+02 -7.339021e+02
         vertex 1.780000e+02 -2.674939e+02 -7.339021e+02
      endloop
   endfacet
   facet normal 2.413404e-16 7.071057e-01 7.071079e-01
      outer loop
         vertex 6.460000e+02 -2.908284e+02 -7.105676e+02
         vertex 3.920000e+02 -2.674939e+02 -7.339021e+02
         vertex 2.280000e+02 -2.674939e+02 -7.339021e+02
      endloop
   endfacet
   facet normal 2.413404e-16 7.071057e-01 7.071079e-01
      outer loop
         vertex 6.460000e+02 -2.908284e+02 -7.105676e+02
         vertex 4.320000e+02 -2.674939e+02 -7.339021e+02
         vertex 3.920000e+02 -2.674939e+02 -7.339021e+02
      endloop
   endfacet
   facet normal 2.413404e-16 7.071057e-01 7.071079e-01
      outer loop
         vertex 6.460000e+02 -2.908284e+02 -7.105676e+02
         vertex 5.960000e+02 -2.674939e+02 -7.339021e+02
         vertex 4.320000e+02 -2.674939e+02 -7.339021e+02
      endloop
   endfacet
   facet normal 2.413404e-16 7.071057e-01 7.071079e-01
      outer loop
         vertex 6.460000e+02 -2.908284e+02 -7.105676e+02
         vertex 6.460000e+02 -2.674939e+02 -7.339021e+02
         vertex 5.960000e+02 -2.674939e+02 -7.339021e+02
      endloop
   endfacet
   facet normal -8.895480e-17 7.154503e-02 -9.974374e-01
      outer loop
         vertex 1.780000e+02 3.808234e+01 -1.937957e+02
         vertex 1.780000e+02 -1.003334e+01 -1.972470e+02
         vertex 7.800000e+01 3.808234e+01 -1.937957e+02
      endloop
   endfacet
   facet normal -8.895480e-17 7.154503e-02 -9.974374e-01
      outer loop
         vertex 1.780000e+02 -1.003334e+01 -1.972470e+02
         vertex 7.800000e+01 -1.003334e+01 -1.972470e+02
         vertex 7.800000e+01 3.808234e+01 -1.937957e+02
      endloop
   endfacet
   facet normal -1.000000e+00 2.352496e-16 1.060575e-16
      outer loop
         vertex 7.800000e+01 -1.003334e+01 -1.972470e+02
         vertex 7.800000e+01 -1.889312e+02 -5.755042e+01
         vertex 7.800000e+01 3.808234e+01 -1.937957e+02
      endloop
   endfacet
   facet normal -1.000000e+00 2.352496e-16 1.060575e-16
      outer loop
         vertex 7.800000e+01 1.822122e+01 1.966597e+02
         vertex 7.800000e+01 6.535174e+01 1.863765e+02
         vertex 7.800000e+01 1.863765e+02 6.535169e+01
      endloop
   endfacet
   facet normal 2.413406e-16 7.071069e-01 7.071066e-01
      outer loop
         vertex 7.800000e+01 6.535174e+01 1.863765e+02
         vertex 6.460000e+02 1.863765e+02 6.535169e+01
         vertex 7.800000e+01 1.863765e+02 6.535169e+01
      endloop
   endfacet
   facet normal 2.413406e-16 7.071069e-01 7.071066e-01
      outer loop
         vertex 7.800000e+01 6.535174e+01 1.863765e+02
         vertex 6.460000e+02 6.535174e+01 1.863765e+02
         vertex 6.460000e+02 1.863765e+02 6.535169e+01
      endloop
   endfacet
   facet normal -9.135279e-17 -7.071074e-01 7.071062e-01
      outer loop
         vertex 1.780000e+02 -3.099203e+02 -7.296594e+02
         vertex 6.460000e+02 -2.908284e+02 -7.105676e+02
         vertex 1.780000e+02 -2.908284e+02 -7.105676e+02
      endloop
   endfacet
   facet normal -9.135279e-17 -7.071074e-01 7.071062e-01
      outer loop
         vertex 1.780000e+02 -3.099203e+02 -7.296594e+02
         vertex 6.460000e+02 -3.099203e+02 -7.296594e+02
         vertex 6.460000e+02 -2.908284e+02 -7.105676e+02
      endloop
   endfacet
   facet normal -2.413406e-16 -7.071067e-01 -7.071069e-01
      outer loop
         vertex 6.460000e+02 -3.435448e+02 -6.506492e+02
         vertex 1.780000e+02 -3.435448e+02 -6.506492e+02
         vertex 1.780000e+02 -2.934491e+02 -7.007450e+02
      endloop
   endfacet
   facet normal -2.413406e-16 -7.071067e-01 -7.071069e-01
      outer loop
         vertex 6.460000e+02 -2.934491e+02 -7.007450e+02
         vertex 6.460000e+02 -3.435448e+02 -6.506492e+02
         vertex 1.780000e+02 -2.934491e+02 -7.007450e+02
      endloop
   endfacet
   facet normal 1.000000e+00 -2.352496e-16 -1.060575e-16
      outer loop
         vertex 6.460000e+02 -3.440535e+02 -6.500536e+02
         vertex 6.460000e+02 -3.435448e+02 -6.506492e+02
         vertex 6.460000e+02 -2.934491e+02 -7.007450e+02
      endloop
   endfacet
   facet normal -1.450237e-16 -1.723870e-01 -9.850293e-01
      outer loop
         vertex 1.780000e+02 -1.003334e+01 -1.972470e+02
         vertex 1.780000e+02 -5.755047e+01 -1.889312e+02
         vertex 7.800000e+01 -1.003334e+01 -1.972470e+02
      endloop
   endfacet
   facet normal -1.450237e-16 -1.723870e-01 -9.850293e-01
      outer loop
         vertex 1.780000e+02 -5.755047e+01 -1.889312e+02
         vertex 7.800000e+01 -5.755047e+01 -1.889312e+02
         vertex 7.800000e+01 -1.003334e+01 -1.972470e+02
      endloop
   endfacet
   facet normal -1.000000e+00 2.352496e-16 1.060575e-16
      outer loop
         vertex 7.800000e+01 -5.755047e+01 -1.889312e+02
         vertex 7.800000e+01 -1.889312e+02 -5.755042e+01
         vertex 7.800000e+01 -1.003334e+01 -1.972470e+02
      endloop
   endfacet
   facet normal -1.924410e-16 -4.060346e-01 -9.138577e-01
      outer loop
         vertex 1.780000e+02 -1.016343e+02 -1.693443e+02
         vertex 7.800000e+01 -1.016343e+02 -1.693443e+02
         vertex 7.800000e+01 -5.755047e+01 -1.889312e+02
      endloop
   endfacet
   facet normal -1.924410e-16 -4.060346e-01 -9.138577e-01
      outer loop
         vertex 1.780000e+02 -5.755047e+01 -1.889312e+02
         vertex 1.780000e+02 -1.016343e+02 -1.693443e+02
         vertex 7.800000e+01 -5.755047e+01 -1.889312e+02
      endloop
   endfacet
   facet normal -1.000000e+00 2.352496e-16 1.060575e-16
      outer loop
         vertex 7.800000e+01 -1.016343e+02 -1.693443e+02
         vertex 7.800000e+01 -1.396550e+02 -1.396550e+02
         vertex 7.800000e+01 -5.755047e+01 -1.889312e+02
      endloop
   endfacet
   facet normal -1.000000e+00 2.352496e-16 1.060575e-16
      outer loop
         vertex 7.800000e+01 -1.396550e+02 -1.396550e+02
         vertex 7.800000e+01 -1.693444e+02 -1.016343e+02
         vertex 7.800000e+01 -5.755047e+01 -1.889312e+02
      endloop
   endfacet
   facet normal -1.000000e+00 2.352496e-16 1.060575e-16
      outer loop
         vertex 7.800000e+01 -1.693444e+02 -1.016343e+02
         vertex 7.800000e+01 -1.889312e+02 -5.755042e+01
         vertex 7.800000e+01 -5.755047e+01 -1.889312e+02
      endloop
   endfacet
   facet normal -1.000000e+00 2.352496e-16 1.060575e-16
      outer loop
         vertex 1.780000e+02 -3.450092e+02 -2.039158e+02
         vertex 1.780000e+02 -1.016343e+02 -1.693443e+02
         vertex 1.780000e+02 -5.755047e+01 -1.889312e+02
      endloop
   endfacet
   facet normal -2.477795e-16 -7.605453e-01 -6.492848e-01
      outer loop
         vertex 6.460000e+02 -3.435448e+02 -6.506492e+02
         vertex 1.780000e+02 -3.440543e+02 -6.500525e+02
         vertex 1.780000e+02 -3.435448e+02 -6.506492e+02
      endloop
   endfacet
   facet normal -1.887401e-07 -7.604722e-01 -6.493704e-01
      outer loop
         vertex 6.460000e+02 -3.440535e+02 -6.500536e+02
         vertex 1.780000e+02 -3.440543e+02 -6.500525e+02
         vertex 6.460000e+02 -3.435448e+02 -6.506492e+02
      endloop
   endfacet
   facet normal 1.131072e-05 -8.523728e-01 -5.229346e-01
      outer loop
         vertex 6.460000e+02 -3.444630e+02 -6.493860e+02
         vertex 6.456751e+02 -3.442648e+02 -6.497091e+02
         vertex 6.460000e+02 -3.440535e+02 -6.500536e+02
      endloop
   endfacet
   facet normal -9.117611e-08 -7.818651e-01 -6.234477e-01
      outer loop
         vertex 6.456751e+02 -3.440537e+02 -6.500533e+02
         vertex 1.780000e+02 -3.440543e+02 -6.500525e+02
         vertex 6.460000e+02 -3.440535e+02 -6.500536e+02
      endloop
   endfacet
   facet normal 1.230465e-04 -8.524198e-01 -5.228580e-01
      outer loop
         vertex 6.456751e+02 -3.442648e+02 -6.497091e+02
         vertex 6.456751e+02 -3.440537e+02 -6.500533e+02
         vertex 6.460000e+02 -3.440535e+02 -6.500536e+02
      endloop
   endfacet
   facet normal 1.804528e-07 -8.524198e-01 -5.228580e-01
      outer loop
         vertex 6.456751e+02 -3.442648e+02 -6.497091e+02
         vertex 1.780000e+02 -3.440543e+02 -6.500525e+02
         vertex 6.456751e+02 -3.440537e+02 -6.500533e+02
      endloop
   endfacet
   facet normal -7.079907e-08 -8.525723e-01 -5.226093e-01
      outer loop
         vertex 6.456751e+02 -3.442648e+02 -6.497091e+02
         vertex 1.780000e+02 -3.444643e+02 -6.493836e+02
         vertex 1.780000e+02 -3.440543e+02 -6.500525e+02
      endloop
   endfacet
   facet normal -3.741050e-07 -8.523781e-01 -5.229260e-01
      outer loop
         vertex 6.460000e+02 -3.444630e+02 -6.493860e+02
         vertex 1.780000e+02 -3.444643e+02 -6.493836e+02
         vertex 6.456751e+02 -3.442648e+02 -6.497091e+02
      endloop
   endfacet
   facet normal 6.252815e-07 -9.302391e-01 -3.669539e-01
      outer loop
         vertex 6.454387e+02 -3.444634e+02 -6.493851e+02
         vertex 1.780000e+02 -3.444643e+02 -6.493836e+02
         vertex 6.460000e+02 -3.444630e+02 -6.493860e+02
      endloop
   endfacet
   facet normal -1.545162e-05 -9.236799e-01 -3.831650e-01
      outer loop
         vertex 6.460000e+02 -3.447640e+02 -6.486605e+02
         vertex 6.456751e+02 -3.446795e+02 -6.488642e+02
         vertex 6.460000e+02 -3.444630e+02 -6.493860e+02
      endloop
   endfacet
   facet normal -2.577611e-16 -9.301047e-01 -3.672944e-01
      outer loop
         vertex 6.456751e+02 -3.444634e+02 -6.493851e+02
         vertex 6.454387e+02 -3.444634e+02 -6.493851e+02
         vertex 6.460000e+02 -3.444630e+02 -6.493860e+02
      endloop
   endfacet
   facet normal -5.057804e-05 -9.236722e-01 -3.831836e-01
      outer loop
         vertex 6.456751e+02 -3.446795e+02 -6.488642e+02
         vertex 6.456751e+02 -3.444634e+02 -6.493851e+02
         vertex 6.460000e+02 -3.444630e+02 -6.493860e+02
      endloop
   endfacet
   facet normal -2.579330e-16 -9.236722e-01 -3.831836e-01
      outer loop
         vertex 6.456751e+02 -3.444634e+02 -6.493851e+02
         vertex 6.456751e+02 -3.446795e+02 -6.488642e+02
         vertex 6.454387e+02 -3.444634e+02 -6.493851e+02
      endloop
   endfacet
   facet normal 5.611724e-07 -9.236721e-01 -3.831838e-01
      outer loop
         vertex 6.456751e+02 -3.446795e+02 -6.488642e+02
         vertex 1.780000e+02 -3.444643e+02 -6.493836e+02
         vertex 6.454387e+02 -3.444634e+02 -6.493851e+02
      endloop
   endfacet
   facet normal 5.246216e-09 -9.238492e-01 -3.827567e-01
      outer loop
         vertex 6.456751e+02 -3.446795e+02 -6.488642e+02
         vertex 1.780000e+02 -3.447646e+02 -6.486588e+02
         vertex 1.780000e+02 -3.444643e+02 -6.493836e+02
      endloop
   endfacet
   facet normal -2.154927e-07 -9.236713e-01 -3.831857e-01
      outer loop
         vertex 6.460000e+02 -3.447640e+02 -6.486605e+02
         vertex 1.780000e+02 -3.447646e+02 -6.486588e+02
         vertex 6.456751e+02 -3.446795e+02 -6.488642e+02
      endloop
   endfacet
   facet normal 5.736568e-07 -9.818227e-01 -1.898005e-01
      outer loop
         vertex 6.455968e+02 -3.447641e+02 -6.486598e+02
         vertex 1.780000e+02 -3.447646e+02 -6.486588e+02
         vertex 6.460000e+02 -3.447640e+02 -6.486605e+02
      endloop
   endfacet
   facet normal -6.229496e-05 -9.723239e-01 -2.336368e-01
      outer loop
         vertex 6.460000e+02 -3.449475e+02 -6.478967e+02
         vertex 6.456751e+02 -3.449255e+02 -6.479881e+02
         vertex 6.460000e+02 -3.447640e+02 -6.486605e+02
      endloop
   endfacet
   facet normal -2.511225e-16 -9.817608e-01 -1.901201e-01
      outer loop
         vertex 6.456751e+02 -3.447641e+02 -6.486598e+02
         vertex 6.455968e+02 -3.447641e+02 -6.486598e+02
         vertex 6.460000e+02 -3.447640e+02 -6.486605e+02
      endloop
   endfacet
   facet normal -9.738436e-05 -9.723201e-01 -2.336529e-01
      outer loop
         vertex 6.456751e+02 -3.449255e+02 -6.479881e+02
         vertex 6.456751e+02 -3.447641e+02 -6.486598e+02
         vertex 6.460000e+02 -3.447640e+02 -6.486605e+02
      endloop
   endfacet
   facet normal -2.535185e-16 -9.723201e-01 -2.336529e-01
      outer loop
         vertex 6.456751e+02 -3.447641e+02 -6.486598e+02
         vertex 6.456751e+02 -3.449255e+02 -6.479881e+02
         vertex 6.455968e+02 -3.447641e+02 -6.486598e+02
      endloop
   endfacet
   facet normal 4.674869e-07 -9.723201e-01 -2.336529e-01
      outer loop
         vertex 6.456751e+02 -3.449255e+02 -6.479881e+02
         vertex 1.780000e+02 -3.447646e+02 -6.486588e+02
         vertex 6.455968e+02 -3.447641e+02 -6.486598e+02
      endloop
   endfacet
   facet normal 2.422879e-08 -9.723902e-01 -2.333607e-01
      outer loop
         vertex 6.456751e+02 -3.449255e+02 -6.479881e+02
         vertex 1.780000e+02 -3.449477e+02 -6.478958e+02
         vertex 1.780000e+02 -3.447646e+02 -6.486588e+02
      endloop
   endfacet
   facet normal -7.706200e-08 -9.722737e-01 -2.338460e-01
      outer loop
         vertex 6.460000e+02 -3.449475e+02 -6.478967e+02
         vertex 1.780000e+02 -3.449477e+02 -6.478958e+02
         vertex 6.456751e+02 -3.449255e+02 -6.479881e+02
      endloop
   endfacet
   facet normal -8.504782e-05 -9.969060e-01 -7.860349e-02
      outer loop
         vertex 6.460000e+02 -3.450093e+02 -6.471136e+02
         vertex 6.456751e+02 -3.449475e+02 -6.478965e+02
         vertex 6.460000e+02 -3.449475e+02 -6.478967e+02
      endloop
   endfacet
   facet normal 5.214029e-07 -9.981523e-01 6.076094e-02
      outer loop
         vertex 6.456751e+02 -3.449475e+02 -6.478965e+02
         vertex 1.780000e+02 -3.449477e+02 -6.478958e+02
         vertex 6.460000e+02 -3.449475e+02 -6.478967e+02
      endloop
   endfacet
   facet normal -2.428613e-16 -9.969032e-01 -7.863856e-02
      outer loop
         vertex 6.460000e+02 -3.450093e+02 -6.471136e+02
         vertex 6.456751e+02 -3.450093e+02 -6.471136e+02
         vertex 6.456751e+02 -3.449475e+02 -6.478965e+02
      endloop
   endfacet
   facet normal 3.018916e-07 -9.969032e-01 -7.863856e-02
      outer loop
         vertex 6.456751e+02 -3.450093e+02 -6.471136e+02
         vertex 1.780000e+02 -3.449477e+02 -6.478958e+02
         vertex 6.456751e+02 -3.449475e+02 -6.478965e+02
      endloop
   endfacet
   facet normal -2.428456e-16 -9.969173e-01 -7.845916e-02
      outer loop
         vertex 6.456751e+02 -3.450093e+02 -6.471136e+02
         vertex 1.780000e+02 -3.450093e+02 -6.471136e+02
         vertex 1.780000e+02 -3.449477e+02 -6.478958e+02
      endloop
   endfacet
   facet normal -2.352496e-16 -1.000000e+00 6.633756e-08
      outer loop
         vertex 6.456751e+02 -3.450093e+02 -6.471136e+02
         vertex 5.210000e+02 -3.450092e+02 -2.039158e+02
         vertex 1.780000e+02 -3.450093e+02 -6.471136e+02
      endloop
   endfacet
   facet normal -2.352496e-16 -1.000000e+00 6.633756e-08
      outer loop
         vertex 5.210000e+02 -3.450092e+02 -2.039158e+02
         vertex 1.780000e+02 -3.450092e+02 -2.039158e+02
         vertex 1.780000e+02 -3.450093e+02 -6.471136e+02
      endloop
   endfacet
   facet normal -2.352496e-16 -1.000000e+00 6.633756e-08
      outer loop
         vertex 6.460000e+02 -3.450092e+02 -2.039158e+02
         vertex 5.460001e+02 -3.450092e+02 -2.039158e+02
         vertex 6.456751e+02 -3.450093e+02 -6.471136e+02
      endloop
   endfacet
   facet normal -2.352496e-16 -1.000000e+00 6.633756e-08
      outer loop
         vertex 6.460000e+02 -3.450093e+02 -6.471136e+02
         vertex 6.460000e+02 -3.450092e+02 -2.039158e+02
         vertex 6.456751e+02 -3.450093e+02 -6.471136e+02
      endloop
   endfacet
   facet normal -2.352496e-16 -1.000000e+00 6.633756e-08
      outer loop
         vertex 5.460001e+02 -3.450092e+02 -2.039158e+02
         vertex 5.210000e+02 -3.450092e+02 -2.039158e+02
         vertex 6.456751e+02 -3.450093e+02 -6.471136e+02
      endloop
   endfacet
   facet normal -2.283779e-16 -6.154599e-01 -7.881682e-01
      outer loop
         vertex 1.780000e+02 -1.016343e+02 -1.693443e+02
         vertex 1.780000e+02 -1.396550e+02 -1.396550e+02
         vertex 7.800000e+01 -1.016343e+02 -1.693443e+02
      endloop
   endfacet
   facet normal -2.283779e-16 -6.154599e-01 -7.881682e-01
      outer loop
         vertex 1.780000e+02 -1.396550e+02 -1.396550e+02
         vertex 7.800000e+01 -1.396550e+02 -1.396550e+02
         vertex 7.800000e+01 -1.016343e+02 -1.693443e+02
      endloop
   endfacet
   facet normal -1.000000e+00 2.352496e-16 1.060575e-16
      outer loop
         vertex 1.780000e+02 -3.450092e+02 -2.039158e+02
         vertex 1.780000e+02 -1.396550e+02 -1.396550e+02
         vertex 1.780000e+02 -1.016343e+02 -1.693443e+02
      endloop
   endfacet
   facet normal 1.537681e-16 2.131706e-01 9.770150e-01
      outer loop
         vertex 7.800000e+01 1.822122e+01 1.966597e+02
         vertex 6.460000e+02 6.535174e+01 1.863765e+02
         vertex 7.800000e+01 6.535174e+01 1.863765e+02
      endloop
   endfacet
   facet normal 1.537681e-16 2.131706e-01 9.770150e-01
      outer loop
         vertex 7.800000e+01 1.822122e+01 1.966597e+02
         vertex 6.460000e+02 1.822122e+01 1.966597e+02
         vertex 6.460000e+02 6.535174e+01 1.863765e+02
      endloop
   endfacet
   facet normal -2.506904e-16 -7.881682e-01 -6.154598e-01
      outer loop
         vertex 1.780000e+02 -1.396550e+02 -1.396550e+02
         vertex 1.780000e+02 -1.693444e+02 -1.016343e+02
         vertex 7.800000e+01 -1.396550e+02 -1.396550e+02
      endloop
   endfacet
   facet normal -2.506904e-16 -7.881682e-01 -6.154598e-01
      outer loop
         vertex 1.780000e+02 -1.693444e+02 -1.016343e+02
         vertex 7.800000e+01 -1.693444e+02 -1.016343e+02
         vertex 7.800000e+01 -1.396550e+02 -1.396550e+02
      endloop
   endfacet
   facet normal -1.000000e+00 2.352496e-16 1.060575e-16
      outer loop
         vertex 1.780000e+02 -3.450092e+02 -2.039158e+02
         vertex 1.780000e+02 -1.693444e+02 -1.016343e+02
         vertex 1.780000e+02 -1.396550e+02 -1.396550e+02
      endloop
   endfacet
   facet normal 9.894393e-17 -3.003509e-02 9.995488e-01
      outer loop
         vertex 7.800000e+01 -2.999633e+01 1.952108e+02
         vertex 6.460000e+02 1.822122e+01 1.966597e+02
         vertex 7.800000e+01 1.822122e+01 1.966597e+02
      endloop
   endfacet
   facet normal 9.894393e-17 -3.003509e-02 9.995488e-01
      outer loop
         vertex 7.800000e+01 -2.999633e+01 1.952108e+02
         vertex 6.460000e+02 -2.999633e+01 1.952108e+02
         vertex 6.460000e+02 1.822122e+01 1.966597e+02
      endloop
   endfacet
   facet normal -2.580477e-16 -9.138578e-01 -4.060344e-01
      outer loop
         vertex 1.780000e+02 -1.693444e+02 -1.016343e+02
         vertex 1.780000e+02 -1.889312e+02 -5.755042e+01
         vertex 7.800000e+01 -1.693444e+02 -1.016343e+02
      endloop
   endfacet
   facet normal -2.580477e-16 -9.138578e-01 -4.060344e-01
      outer loop
         vertex 1.780000e+02 -1.889312e+02 -5.755042e+01
         vertex 7.800000e+01 -1.889312e+02 -5.755042e+01
         vertex 7.800000e+01 -1.693444e+02 -1.016343e+02
      endloop
   endfacet
   facet normal -1.000000e+00 2.352496e-16 1.060575e-16
      outer loop
         vertex 1.780000e+02 -3.450092e+02 -2.039158e+02
         vertex 1.780000e+02 -3.449333e+02 -2.030475e+02
         vertex 1.780000e+02 -1.693444e+02 -1.016343e+02
      endloop
   endfacet
   facet normal -1.000000e+00 2.352496e-16 1.060575e-16
      outer loop
         vertex 1.780000e+02 -3.447077e+02 -2.022058e+02
         vertex 1.780000e+02 -1.889312e+02 -5.755042e+01
         vertex 1.780000e+02 -1.693444e+02 -1.016343e+02
      endloop
   endfacet
   facet normal -1.000000e+00 2.352496e-16 1.060575e-16
      outer loop
         vertex 1.780000e+02 -3.449333e+02 -2.030475e+02
         vertex 1.780000e+02 -3.447077e+02 -2.022058e+02
         vertex 1.780000e+02 -1.693444e+02 -1.016343e+02
      endloop
   endfacet
   facet normal 3.821722e-17 -2.714485e-01 9.624530e-01
      outer loop
         vertex 7.800000e+01 -7.642439e+01 1.821163e+02
         vertex 6.460000e+02 -2.999633e+01 1.952108e+02
         vertex 7.800000e+01 -2.999633e+01 1.952108e+02
      endloop
   endfacet
   facet normal 3.821722e-17 -2.714485e-01 9.624530e-01
      outer loop
         vertex 7.800000e+01 -7.642439e+01 1.821163e+02
         vertex 6.460000e+02 -7.642439e+01 1.821163e+02
         vertex 6.460000e+02 -2.999633e+01 1.952108e+02
      endloop
   endfacet
   facet normal -2.500107e-16 -9.850294e-01 -1.723866e-01
      outer loop
         vertex 1.780000e+02 -1.889312e+02 -5.755042e+01
         vertex 1.780000e+02 -1.972470e+02 -1.003328e+01
         vertex 7.800000e+01 -1.889312e+02 -5.755042e+01
      endloop
   endfacet
   facet normal -2.500107e-16 -9.850294e-01 -1.723866e-01
      outer loop
         vertex 1.780000e+02 -1.972470e+02 -1.003328e+01
         vertex 7.800000e+01 -1.972470e+02 -1.003328e+01
         vertex 7.800000e+01 -1.889312e+02 -5.755042e+01
      endloop
   endfacet
   facet normal -1.000000e+00 2.352496e-16 1.060575e-16
      outer loop
         vertex 1.780000e+02 -3.447077e+02 -2.022058e+02
         vertex 1.780000e+02 -3.443394e+02 -2.014158e+02
         vertex 1.780000e+02 -1.889312e+02 -5.755042e+01
      endloop
   endfacet
   facet normal -1.000000e+00 2.352496e-16 1.060575e-16
      outer loop
         vertex 1.780000e+02 -3.443394e+02 -2.014158e+02
         vertex 1.780000e+02 -1.972470e+02 -1.003328e+01
         vertex 1.780000e+02 -1.889312e+02 -5.755042e+01
      endloop
   endfacet
   facet normal -2.478945e-17 -4.966685e-01 8.679403e-01
      outer loop
         vertex 7.800000e+01 -1.182932e+02 1.581574e+02
         vertex 6.460000e+02 -7.642439e+01 1.821163e+02
         vertex 7.800000e+01 -7.642439e+01 1.821163e+02
      endloop
   endfacet
   facet normal -2.478945e-17 -4.966685e-01 8.679403e-01
      outer loop
         vertex 7.800000e+01 -1.182932e+02 1.581574e+02
         vertex 6.460000e+02 -1.182932e+02 1.581574e+02
         vertex 6.460000e+02 -7.642439e+01 1.821163e+02
      endloop
   endfacet
   facet normal -2.270588e-16 -9.974374e-01 7.154532e-02
      outer loop
         vertex 1.780000e+02 -1.972470e+02 -1.003328e+01
         vertex 1.780000e+02 -1.937957e+02 3.808240e+01
         vertex 7.800000e+01 -1.972470e+02 -1.003328e+01
      endloop
   endfacet
   facet normal -2.270588e-16 -9.974374e-01 7.154532e-02
      outer loop
         vertex 1.780000e+02 -1.937957e+02 3.808240e+01
         vertex 7.800000e+01 -1.937957e+02 3.808240e+01
         vertex 7.800000e+01 -1.972470e+02 -1.003328e+01
      endloop
   endfacet
   facet normal -1.000000e+00 2.352496e-16 1.060575e-16
      outer loop
         vertex 1.780000e+02 -3.443394e+02 -2.014158e+02
         vertex 1.780000e+02 -1.937957e+02 3.808240e+01
         vertex 1.780000e+02 -1.972470e+02 -1.003328e+01
      endloop
   endfacet
   facet normal -8.631738e-17 -6.922591e-01 7.216490e-01
      outer loop
         vertex 7.800000e+01 -1.531051e+02 1.247633e+02
         vertex 6.460000e+02 -1.182932e+02 1.581574e+02
         vertex 7.800000e+01 -1.182932e+02 1.581574e+02
      endloop
   endfacet
   facet normal -8.631738e-17 -6.922591e-01 7.216490e-01
      outer loop
         vertex 7.800000e+01 -1.531051e+02 1.247633e+02
         vertex 6.460000e+02 -1.531051e+02 1.247633e+02
         vertex 6.460000e+02 -1.182932e+02 1.581574e+02
      endloop
   endfacet
   facet normal -1.905614e-16 -9.503415e-01 3.112089e-01
      outer loop
         vertex 1.780000e+02 -1.937957e+02 3.808240e+01
         vertex 1.780000e+02 -1.787832e+02 8.392622e+01
         vertex 7.800000e+01 -1.937957e+02 3.808240e+01
      endloop
   endfacet
   facet normal -1.905614e-16 -9.503415e-01 3.112089e-01
      outer loop
         vertex 1.780000e+02 -1.787832e+02 8.392622e+01
         vertex 7.800000e+01 -1.787832e+02 8.392622e+01
         vertex 7.800000e+01 -1.937957e+02 3.808240e+01
      endloop
   endfacet
   facet normal -1.000000e+00 2.352496e-16 1.060575e-16
      outer loop
         vertex 1.780000e+02 -3.443394e+02 -2.014158e+02
         vertex 1.780000e+02 -1.787832e+02 8.392622e+01
         vertex 1.780000e+02 -1.937957e+02 3.808240e+01
      endloop
   endfacet
   facet normal -1.340943e-16 -8.248718e-01 5.653198e-01
      outer loop
         vertex 1.780000e+02 -1.716028e+02 9.777285e+01
         vertex 6.460000e+02 -1.531051e+02 1.247633e+02
         vertex 7.800000e+01 -1.531051e+02 1.247633e+02
      endloop
   endfacet
   facet normal -1.426957e-16 -8.465515e-01 5.323069e-01
      outer loop
         vertex 7.800000e+01 -1.787832e+02 8.392622e+01
         vertex 1.780000e+02 -1.787832e+02 8.392622e+01
         vertex 7.800000e+01 -1.531051e+02 1.247633e+02
      endloop
   endfacet
   facet normal -3.992787e-02 -8.870285e-01 4.599850e-01
      outer loop
         vertex 1.780000e+02 -1.787832e+02 8.392622e+01
         vertex 1.780000e+02 -1.716028e+02 9.777285e+01
         vertex 7.800000e+01 -1.531051e+02 1.247633e+02
      endloop
   endfacet
   facet normal -1.340943e-16 -8.248718e-01 5.653198e-01
      outer loop
         vertex 1.780000e+02 -1.716028e+02 9.777285e+01
         vertex 6.460000e+02 -1.716028e+02 9.777285e+01
         vertex 6.460000e+02 -1.531051e+02 1.247633e+02
      endloop
   endfacet
   facet normal -1.000000e+00 2.352496e-16 1.060575e-16
      outer loop
         vertex 1.780000e+02 -3.443394e+02 -2.014158e+02
         vertex 1.780000e+02 -1.716028e+02 9.777285e+01
         vertex 1.780000e+02 -1.787832e+02 8.392622e+01
      endloop
   endfacet
   facet normal -2.251206e-16 -9.962014e-01 8.707913e-02
      outer loop
         vertex 5.210000e+02 -3.450092e+02 -2.039158e+02
         vertex 5.210000e+02 -3.449333e+02 -2.030475e+02
         vertex 1.780000e+02 -3.450092e+02 -2.039158e+02
      endloop
   endfacet
   facet normal -2.251206e-16 -9.962014e-01 8.707913e-02
      outer loop
         vertex 5.210000e+02 -3.449333e+02 -2.030475e+02
         vertex 1.780000e+02 -3.449333e+02 -2.030475e+02
         vertex 1.780000e+02 -3.450092e+02 -2.039158e+02
      endloop
   endfacet
   facet normal -1.000000e+00 2.352496e-16 1.060575e-16
      outer loop
         vertex 5.210000e+02 -3.450093e+02 -2.025761e+02
         vertex 5.210000e+02 -3.449333e+02 -2.030475e+02
         vertex 5.210000e+02 -3.450092e+02 -2.039158e+02
      endloop
   endfacet
   facet normal -2.352554e-16 -1.000000e+00 -5.453918e-05
      outer loop
         vertex 5.460001e+02 -3.450092e+02 -2.039158e+02
         vertex 5.210000e+02 -3.450093e+02 -2.025761e+02
         vertex 5.210000e+02 -3.450092e+02 -2.039158e+02
      endloop
   endfacet
   facet normal -2.323656e-16 -9.996510e-01 2.641823e-02
      outer loop
         vertex 6.460000e+02 -3.450092e+02 -2.039158e+02
         vertex 5.460001e+02 -3.450023e+02 -2.036555e+02
         vertex 5.460001e+02 -3.450092e+02 -2.039158e+02
      endloop
   endfacet
   facet normal 1.000000e+00 -2.352496e-16 -1.060575e-16
      outer loop
         vertex 5.460001e+02 -3.450023e+02 -2.036555e+02
         vertex 5.460001e+02 -3.450093e+02 -2.025761e+02
         vertex 5.460001e+02 -3.450092e+02 -2.039158e+02
      endloop
   endfacet
   facet normal -2.352554e-16 -1.000000e+00 -5.453918e-05
      outer loop
         vertex 5.460001e+02 -3.450093e+02 -2.025761e+02
         vertex 5.210000e+02 -3.450093e+02 -2.025761e+02
         vertex 5.460001e+02 -3.450092e+02 -2.039158e+02
      endloop
   endfacet
   facet normal -2.323656e-16 -9.996510e-01 2.641823e-02
      outer loop
         vertex 6.460000e+02 -3.450023e+02 -2.036555e+02
         vertex 5.460001e+02 -3.450023e+02 -2.036555e+02
         vertex 6.460000e+02 -3.450092e+02 -2.039158e+02
      endloop
   endfacet
   facet normal -2.193056e-16 -9.913601e-01 1.311686e-01
      outer loop
         vertex 6.460000e+02 -3.450023e+02 -2.036555e+02
         vertex 6.005949e+02 -3.449556e+02 -2.033021e+02
         vertex 5.460001e+02 -3.450023e+02 -2.036555e+02
      endloop
   endfacet
   facet normal -2.193056e-16 -9.913601e-01 1.311686e-01
      outer loop
         vertex 6.005949e+02 -3.449556e+02 -2.033021e+02
         vertex 5.460001e+02 -3.449556e+02 -2.033021e+02
         vertex 5.460001e+02 -3.450023e+02 -2.036555e+02
      endloop
   endfacet
   facet normal 1.000000e+00 -2.352496e-16 -1.060575e-16
      outer loop
         vertex 5.460001e+02 -3.449556e+02 -2.033021e+02
         vertex 5.460001e+02 -3.450093e+02 -2.025761e+02
         vertex 5.460001e+02 -3.450023e+02 -2.036555e+02
      endloop
   endfacet
   facet normal -2.193056e-16 -9.913601e-01 1.311686e-01
      outer loop
         vertex 6.456751e+02 -3.449556e+02 -2.033021e+02
         vertex 6.005949e+02 -3.449556e+02 -2.033021e+02
         vertex 6.460000e+02 -3.450023e+02 -2.036555e+02
      endloop
   endfacet
   facet normal 5.467773e-05 -9.913535e-01 1.312180e-01
      outer loop
         vertex 6.456751e+02 -3.449107e+02 -2.029632e+02
         vertex 6.456751e+02 -3.449556e+02 -2.033021e+02
         vertex 6.460000e+02 -3.450023e+02 -2.036555e+02
      endloop
   endfacet
   facet normal 1.527537e-05 -9.913559e-01 1.311999e-01
      outer loop
         vertex 6.460000e+02 -3.448994e+02 -2.028773e+02
         vertex 6.456751e+02 -3.449107e+02 -2.029632e+02
         vertex 6.460000e+02 -3.450023e+02 -2.036555e+02
      endloop
   endfacet
   facet normal -2.251156e-16 -9.961980e-01 8.711818e-02
      outer loop
         vertex 6.005949e+02 -3.449556e+02 -2.033021e+02
         vertex 5.460001e+02 -3.449333e+02 -2.030475e+02
         vertex 5.460001e+02 -3.449556e+02 -2.033021e+02
      endloop
   endfacet
   facet normal 1.000000e+00 -2.352496e-16 -1.060575e-16
      outer loop
         vertex 5.460001e+02 -3.449333e+02 -2.030475e+02
         vertex 5.460001e+02 -3.450093e+02 -2.025761e+02
         vertex 5.460001e+02 -3.449556e+02 -2.033021e+02
      endloop
   endfacet
   facet normal -2.251156e-16 -9.961980e-01 8.711818e-02
      outer loop
         vertex 6.456751e+02 -3.449556e+02 -2.033021e+02
         vertex 6.456751e+02 -3.449333e+02 -2.030475e+02
         vertex 6.005949e+02 -3.449556e+02 -2.033021e+02
      endloop
   endfacet
   facet normal -2.251156e-16 -9.961980e-01 8.711818e-02
      outer loop
         vertex 6.456751e+02 -3.449333e+02 -2.030475e+02
         vertex 5.460001e+02 -3.449333e+02 -2.030475e+02
         vertex 6.005949e+02 -3.449556e+02 -2.033021e+02
      endloop
   endfacet
   facet normal 1.000000e+00 -2.352496e-16 -1.060575e-16
      outer loop
         vertex 6.456751e+02 -3.449107e+02 -2.029632e+02
         vertex 6.456751e+02 -3.449333e+02 -2.030475e+02
         vertex 6.456751e+02 -3.449556e+02 -2.033021e+02
      endloop
   endfacet
   facet normal -1.997732e-16 -9.659088e-01 2.588826e-01
      outer loop
         vertex 5.210000e+02 -3.449333e+02 -2.030475e+02
         vertex 5.210000e+02 -3.447077e+02 -2.022058e+02
         vertex 1.780000e+02 -3.449333e+02 -2.030475e+02
      endloop
   endfacet
   facet normal -1.997732e-16 -9.659088e-01 2.588826e-01
      outer loop
         vertex 5.210000e+02 -3.447077e+02 -2.022058e+02
         vertex 1.780000e+02 -3.447077e+02 -2.022058e+02
         vertex 1.780000e+02 -3.449333e+02 -2.030475e+02
      endloop
   endfacet
   facet normal -1.000000e+00 2.352496e-16 1.060575e-16
      outer loop
         vertex 5.210000e+02 -3.450093e+02 -2.025761e+02
         vertex 5.210000e+02 -3.447077e+02 -2.022058e+02
         vertex 5.210000e+02 -3.449333e+02 -2.030475e+02
      endloop
   endfacet
   facet normal -1.997699e-16 -9.659036e-01 2.589020e-01
      outer loop
         vertex 6.456751e+02 -3.449333e+02 -2.030475e+02
         vertex 5.570444e+02 -3.449107e+02 -2.029632e+02
         vertex 5.460001e+02 -3.449333e+02 -2.030475e+02
      endloop
   endfacet
   facet normal -1.997699e-16 -9.659036e-01 2.589020e-01
      outer loop
         vertex 5.570444e+02 -3.449107e+02 -2.029632e+02
         vertex 5.460001e+02 -3.449107e+02 -2.029632e+02
         vertex 5.460001e+02 -3.449333e+02 -2.030475e+02
      endloop
   endfacet
   facet normal 1.000000e+00 -2.352496e-16 -1.060575e-16
      outer loop
         vertex 5.460001e+02 -3.449107e+02 -2.029632e+02
         vertex 5.460001e+02 -3.450093e+02 -2.025761e+02
         vertex 5.460001e+02 -3.449333e+02 -2.030475e+02
      endloop
   endfacet
   facet normal -1.997699e-16 -9.659036e-01 2.589020e-01
      outer loop
         vertex 6.456751e+02 -3.449107e+02 -2.029632e+02
         vertex 5.570444e+02 -3.449107e+02 -2.029632e+02
         vertex 6.456751e+02 -3.449333e+02 -2.030475e+02
      endloop
   endfacet
   facet normal -2.192936e-16 -9.913484e-01 1.312566e-01
      outer loop
         vertex 5.570444e+02 -3.449107e+02 -2.029632e+02
         vertex 5.460001e+02 -3.448994e+02 -2.028773e+02
         vertex 5.460001e+02 -3.449107e+02 -2.029632e+02
      endloop
   endfacet
   facet normal 1.000000e+00 -2.352496e-16 -1.060575e-16
      outer loop
         vertex 5.460001e+02 -3.448994e+02 -2.028773e+02
         vertex 5.460001e+02 -3.450093e+02 -2.025761e+02
         vertex 5.460001e+02 -3.449107e+02 -2.029632e+02
      endloop
   endfacet
   facet normal -2.192936e-16 -9.913484e-01 1.312566e-01
      outer loop
         vertex 6.456751e+02 -3.449107e+02 -2.029632e+02
         vertex 6.460000e+02 -3.448994e+02 -2.028773e+02
         vertex 5.570444e+02 -3.449107e+02 -2.029632e+02
      endloop
   endfacet
   facet normal -2.192936e-16 -9.913484e-01 1.312566e-01
      outer loop
         vertex 6.460000e+02 -3.448994e+02 -2.028773e+02
         vertex 5.460001e+02 -3.448994e+02 -2.028773e+02
         vertex 5.570444e+02 -3.449107e+02 -2.029632e+02
      endloop
   endfacet
   facet normal -1.954907e-16 -9.589053e-01 2.837265e-01
      outer loop
         vertex 6.460000e+02 -3.448994e+02 -2.028773e+02
         vertex 5.903971e+02 -3.447755e+02 -2.024587e+02
         vertex 5.460001e+02 -3.448994e+02 -2.028773e+02
      endloop
   endfacet
   facet normal -1.954907e-16 -9.589053e-01 2.837265e-01
      outer loop
         vertex 5.903971e+02 -3.447755e+02 -2.024587e+02
         vertex 5.460001e+02 -3.447755e+02 -2.024587e+02
         vertex 5.460001e+02 -3.448994e+02 -2.028773e+02
      endloop
   endfacet
   facet normal 1.000000e+00 -2.352496e-16 -1.060575e-16
      outer loop
         vertex 5.460001e+02 -3.447755e+02 -2.024587e+02
         vertex 5.460001e+02 -3.450093e+02 -2.025761e+02
         vertex 5.460001e+02 -3.448994e+02 -2.028773e+02
      endloop
   endfacet
   facet normal -1.954907e-16 -9.589053e-01 2.837265e-01
      outer loop
         vertex 6.456751e+02 -3.447755e+02 -2.024587e+02
         vertex 5.903971e+02 -3.447755e+02 -2.024587e+02
         vertex 6.460000e+02 -3.448994e+02 -2.028773e+02
      endloop
   endfacet
   facet normal -2.029614e-05 -9.589095e-01 2.837120e-01
      outer loop
         vertex 6.456751e+02 -3.446884e+02 -2.021644e+02
         vertex 6.456751e+02 -3.447755e+02 -2.024587e+02
         vertex 6.460000e+02 -3.448994e+02 -2.028773e+02
      endloop
   endfacet
   facet normal -2.295339e-05 -9.589099e-01 2.837109e-01
      outer loop
         vertex 6.460000e+02 -3.446766e+02 -2.021245e+02
         vertex 6.456751e+02 -3.446884e+02 -2.021644e+02
         vertex 6.460000e+02 -3.448994e+02 -2.028773e+02
      endloop
   endfacet
   facet normal -1.997776e-16 -9.659158e-01 2.588565e-01
      outer loop
         vertex 5.903971e+02 -3.447755e+02 -2.024587e+02
         vertex 5.460001e+02 -3.447077e+02 -2.022058e+02
         vertex 5.460001e+02 -3.447755e+02 -2.024587e+02
      endloop
   endfacet
   facet normal 1.000000e+00 -2.352496e-16 -1.060575e-16
      outer loop
         vertex 5.460001e+02 -3.447077e+02 -2.022058e+02
         vertex 5.460001e+02 -3.450093e+02 -2.025761e+02
         vertex 5.460001e+02 -3.447755e+02 -2.024587e+02
      endloop
   endfacet
   facet normal -1.997776e-16 -9.659158e-01 2.588565e-01
      outer loop
         vertex 6.456751e+02 -3.447077e+02 -2.022058e+02
         vertex 5.460001e+02 -3.447077e+02 -2.022058e+02
         vertex 5.903971e+02 -3.447755e+02 -2.024587e+02
      endloop
   endfacet
   facet normal -1.997776e-16 -9.659158e-01 2.588565e-01
      outer loop
         vertex 6.456751e+02 -3.447755e+02 -2.024587e+02
         vertex 6.456751e+02 -3.447077e+02 -2.022058e+02
         vertex 5.903971e+02 -3.447755e+02 -2.024587e+02
      endloop
   endfacet
   facet normal 1.000000e+00 -2.352496e-16 -1.060575e-16
      outer loop
         vertex 6.456751e+02 -3.446884e+02 -2.021644e+02
         vertex 6.456751e+02 -3.447077e+02 -2.022058e+02
         vertex 6.456751e+02 -3.447755e+02 -2.024587e+02
      endloop
   endfacet
   facet normal -1.683962e-16 -9.063284e-01 4.225741e-01
      outer loop
         vertex 5.210000e+02 -3.447077e+02 -2.022058e+02
         vertex 1.780000e+02 -3.443394e+02 -2.014158e+02
         vertex 1.780000e+02 -3.447077e+02 -2.022058e+02
      endloop
   endfacet
   facet normal -1.000000e+00 2.352496e-16 1.060575e-16
      outer loop
         vertex 5.210000e+02 -3.450093e+02 -2.025761e+02
         vertex 5.210000e+02 -3.443394e+02 -2.014158e+02
         vertex 5.210000e+02 -3.447077e+02 -2.022058e+02
      endloop
   endfacet
   facet normal -1.683962e-16 -9.063284e-01 4.225741e-01
      outer loop
         vertex 5.210000e+02 -3.443394e+02 -2.014158e+02
         vertex 1.780000e+02 -3.443394e+02 -2.014158e+02
         vertex 5.210000e+02 -3.447077e+02 -2.022058e+02
      endloop
   endfacet
   facet normal -1.683857e-16 -9.063057e-01 4.226228e-01
      outer loop
         vertex 6.456751e+02 -3.447077e+02 -2.022058e+02
         vertex 5.512972e+02 -3.446884e+02 -2.021644e+02
         vertex 5.460001e+02 -3.447077e+02 -2.022058e+02
      endloop
   endfacet
   facet normal -1.683857e-16 -9.063057e-01 4.226228e-01
      outer loop
         vertex 5.512972e+02 -3.446884e+02 -2.021644e+02
         vertex 5.460001e+02 -3.446884e+02 -2.021644e+02
         vertex 5.460001e+02 -3.447077e+02 -2.022058e+02
      endloop
   endfacet
   facet normal 1.000000e+00 -2.352496e-16 -1.060575e-16
      outer loop
         vertex 5.460001e+02 -3.446884e+02 -2.021644e+02
         vertex 5.460001e+02 -3.450093e+02 -2.025761e+02
         vertex 5.460001e+02 -3.447077e+02 -2.022058e+02
      endloop
   endfacet
   facet normal -1.683857e-16 -9.063057e-01 4.226228e-01
      outer loop
         vertex 6.456751e+02 -3.446884e+02 -2.021644e+02
         vertex 5.512972e+02 -3.446884e+02 -2.021644e+02
         vertex 6.456751e+02 -3.447077e+02 -2.022058e+02
      endloop
   endfacet
   facet normal -1.955237e-16 -9.589607e-01 2.835390e-01
      outer loop
         vertex 5.512972e+02 -3.446884e+02 -2.021644e+02
         vertex 5.460001e+02 -3.446766e+02 -2.021245e+02
         vertex 5.460001e+02 -3.446884e+02 -2.021644e+02
      endloop
   endfacet
   facet normal 1.000000e+00 -2.352496e-16 -1.060575e-16
      outer loop
         vertex 5.460001e+02 -3.446766e+02 -2.021245e+02
         vertex 5.460001e+02 -3.450093e+02 -2.025761e+02
         vertex 5.460001e+02 -3.446884e+02 -2.021644e+02
      endloop
   endfacet
   facet normal -1.955237e-16 -9.589607e-01 2.835390e-01
      outer loop
         vertex 6.456751e+02 -3.446884e+02 -2.021644e+02
         vertex 6.460000e+02 -3.446766e+02 -2.021245e+02
         vertex 5.512972e+02 -3.446884e+02 -2.021644e+02
      endloop
   endfacet
   facet normal -1.955237e-16 -9.589607e-01 2.835390e-01
      outer loop
         vertex 6.460000e+02 -3.446766e+02 -2.021245e+02
         vertex 5.460001e+02 -3.446766e+02 -2.021245e+02
         vertex 5.512972e+02 -3.446884e+02 -2.021644e+02
      endloop
   endfacet
   facet normal -1.668553e-16 -9.029816e-01 4.296792e-01
      outer loop
         vertex 6.460000e+02 -3.446766e+02 -2.021245e+02
         vertex 5.460001e+02 -3.443394e+02 -2.014158e+02
         vertex 5.460001e+02 -3.446766e+02 -2.021245e+02
      endloop
   endfacet
   facet normal 1.000000e+00 -2.352496e-16 -1.060575e-16
      outer loop
         vertex 5.460001e+02 -3.443394e+02 -2.014158e+02
         vertex 5.460001e+02 -3.450093e+02 -2.025761e+02
         vertex 5.460001e+02 -3.446766e+02 -2.021245e+02
      endloop
   endfacet
   facet normal -1.668553e-16 -9.029816e-01 4.296792e-01
      outer loop
         vertex 6.460000e+02 -3.443394e+02 -2.014158e+02
         vertex 5.460001e+02 -3.443394e+02 -2.014158e+02
         vertex 6.460000e+02 -3.446766e+02 -2.021245e+02
      endloop
   endfacet
   facet normal -1.507034e-16 -8.660254e-01 5.000000e-01
      outer loop
         vertex 5.210000e+02 -3.443394e+02 -2.014158e+02
         vertex 6.460000e+02 -1.716028e+02 9.777285e+01
         vertex 1.780000e+02 -3.443394e+02 -2.014158e+02
      endloop
   endfacet
   facet normal -1.507034e-16 -8.660254e-01 5.000000e-01
      outer loop
         vertex 6.460000e+02 -1.716028e+02 9.777285e+01
         vertex 1.780000e+02 -1.716028e+02 9.777285e+01
         vertex 1.780000e+02 -3.443394e+02 -2.014158e+02
      endloop
   endfacet
   facet normal -1.507034e-16 -8.660254e-01 5.000000e-01
      outer loop
         vertex 5.460001e+02 -3.450093e+02 -2.025761e+02
         vertex 5.460001e+02 -3.443394e+02 -2.014158e+02
         vertex 5.210000e+02 -3.450093e+02 -2.025761e+02
      endloop
   endfacet
   facet normal 2.348018e-09 -8.660254e-01 5.000000e-01
      outer loop
         vertex 5.460001e+02 -3.443394e+02 -2.014158e+02
         vertex 6.460000e+02 -1.716028e+02 9.777285e+01
         vertex 5.210000e+02 -3.450093e+02 -2.025761e+02
      endloop
   endfacet
   facet normal -1.192093e-07 -8.660254e-01 5.000000e-01
      outer loop
         vertex 6.460000e+02 -1.716028e+02 9.777285e+01
         vertex 5.210000e+02 -3.443394e+02 -2.014158e+02
         vertex 5.210000e+02 -3.450093e+02 -2.025761e+02
      endloop
   endfacet
   facet normal -1.507034e-16 -8.660254e-01 5.000000e-01
      outer loop
         vertex 6.460000e+02 -3.443394e+02 -2.014158e+02
         vertex 6.460000e+02 -1.716028e+02 9.777285e+01
         vertex 5.460001e+02 -3.443394e+02 -2.014158e+02
      endloop
   endfacet
endsolid